<svg width="375" height="812" viewBox="0 0 375 812" fill="none" xmlns="http://www.w3.org/2000/svg">
<g clip-path="url(#clip0)">
<rect width="375" height="812" fill="#F2F3F5"/>
<path d="M31.584 174V147.4H48.76V151.314H36.448V158.762H46.404V162.6H36.448V174H31.584ZM55.0217 152.226C54.135 152.226 53.4004 151.96 52.8177 151.428C52.2604 150.896 51.9817 150.225 51.9817 149.414C51.9817 148.603 52.2604 147.945 52.8177 147.438C53.4004 146.906 54.135 146.64 55.0217 146.64C55.9084 146.64 56.6304 146.906 57.1877 147.438C57.7704 147.945 58.0617 148.603 58.0617 149.414C58.0617 150.225 57.7704 150.896 57.1877 151.428C56.6304 151.96 55.9084 152.226 55.0217 152.226ZM52.5897 174V155.152H57.4537V174H52.5897ZM62.5305 174V155.152H66.8245L67.2045 158.344C67.7872 157.229 68.6232 156.343 69.7125 155.684C70.8272 155.025 72.1319 154.696 73.6265 154.696C75.9572 154.696 77.7685 155.431 79.0605 156.9C80.3525 158.369 80.9985 160.523 80.9985 163.36V174H76.1345V163.816C76.1345 162.195 75.8052 160.953 75.1465 160.092C74.4879 159.231 73.4619 158.8 72.0685 158.8C70.7005 158.8 69.5732 159.281 68.6865 160.244C67.8252 161.207 67.3945 162.549 67.3945 164.272V174H62.5305ZM94.3137 174.456C92.5404 174.456 90.957 174.025 89.5637 173.164C88.1704 172.303 87.0684 171.125 86.2577 169.63C85.447 168.135 85.0417 166.438 85.0417 164.538C85.0417 162.638 85.447 160.953 86.2577 159.484C87.0684 157.989 88.1704 156.824 89.5637 155.988C90.957 155.127 92.5404 154.696 94.3137 154.696C95.7324 154.696 96.9737 154.962 98.0377 155.494C99.1017 156.026 99.963 156.773 100.622 157.736V146.64H105.486V174H101.154L100.622 171.302C100.014 172.138 99.203 172.873 98.1897 173.506C97.2017 174.139 95.9097 174.456 94.3137 174.456ZM95.3397 170.2C96.9104 170.2 98.1897 169.681 99.1777 168.642C100.191 167.578 100.698 166.223 100.698 164.576C100.698 162.929 100.191 161.587 99.1777 160.548C98.1897 159.484 96.9104 158.952 95.3397 158.952C93.7944 158.952 92.515 159.471 91.5017 160.51C90.4884 161.549 89.9817 162.891 89.9817 164.538C89.9817 166.185 90.4884 167.54 91.5017 168.604C92.515 169.668 93.7944 170.2 95.3397 170.2ZM121.849 182.36L126.219 172.746H125.079L117.745 155.152H123.027L128.309 168.414L133.819 155.152H138.987L127.017 182.36H121.849ZM149.578 174.456C147.754 174.456 146.108 174.038 144.638 173.202C143.194 172.366 142.042 171.213 141.18 169.744C140.344 168.249 139.926 166.527 139.926 164.576C139.926 162.625 140.357 160.915 141.218 159.446C142.08 157.951 143.232 156.786 144.676 155.95C146.146 155.114 147.792 154.696 149.616 154.696C151.415 154.696 153.036 155.114 154.48 155.95C155.95 156.786 157.102 157.951 157.938 159.446C158.8 160.915 159.23 162.625 159.23 164.576C159.23 166.527 158.8 168.249 157.938 169.744C157.102 171.213 155.95 172.366 154.48 173.202C153.011 174.038 151.377 174.456 149.578 174.456ZM149.578 170.238C150.845 170.238 151.947 169.769 152.884 168.832C153.822 167.869 154.29 166.451 154.29 164.576C154.29 162.701 153.822 161.295 152.884 160.358C151.947 159.395 150.858 158.914 149.616 158.914C148.324 158.914 147.21 159.395 146.272 160.358C145.36 161.295 144.904 162.701 144.904 164.576C144.904 166.451 145.36 167.869 146.272 168.832C147.21 169.769 148.312 170.238 149.578 170.238ZM170.647 174.456C168.291 174.456 166.467 173.721 165.175 172.252C163.909 170.783 163.275 168.629 163.275 165.792V155.152H168.101V165.336C168.101 166.957 168.431 168.199 169.089 169.06C169.748 169.921 170.787 170.352 172.205 170.352C173.548 170.352 174.65 169.871 175.511 168.908C176.398 167.945 176.841 166.603 176.841 164.88V155.152H181.705V174H177.411L177.031 170.808C176.449 171.923 175.6 172.809 174.485 173.468C173.396 174.127 172.117 174.456 170.647 174.456ZM186.699 174V155.152H191.031L191.487 158.686C192.171 157.47 193.095 156.507 194.261 155.798C195.451 155.063 196.845 154.696 198.441 154.696V159.826H197.073C196.009 159.826 195.059 159.991 194.223 160.32C193.387 160.649 192.728 161.219 192.247 162.03C191.791 162.841 191.563 163.968 191.563 165.412V174H186.699ZM43.63 223.456C40.9447 223.456 38.6393 222.886 36.714 221.746C34.7887 220.581 33.3067 218.972 32.268 216.92C31.2293 214.843 30.71 212.449 30.71 209.738C30.71 207.027 31.2293 204.633 32.268 202.556C33.3067 200.479 34.7887 198.857 36.714 197.692C38.6393 196.527 40.9447 195.944 43.63 195.944C46.822 195.944 49.4313 196.742 51.458 198.338C53.51 199.909 54.7893 202.125 55.296 204.988H49.938C49.6087 203.544 48.8993 202.417 47.81 201.606C46.746 200.77 45.3273 200.352 43.554 200.352C41.0967 200.352 39.1713 201.188 37.778 202.86C36.3847 204.532 35.688 206.825 35.688 209.738C35.688 212.651 36.3847 214.944 37.778 216.616C39.1713 218.263 41.0967 219.086 43.554 219.086C45.3273 219.086 46.746 218.706 47.81 217.946C48.8993 217.161 49.6087 216.084 49.938 214.716H55.296C54.7893 217.452 53.51 219.593 51.458 221.138C49.4313 222.683 46.822 223.456 43.63 223.456ZM68.5316 223.456C66.7076 223.456 65.0609 223.038 63.5916 222.202C62.1476 221.366 60.9949 220.213 60.1336 218.744C59.2976 217.249 58.8796 215.527 58.8796 213.576C58.8796 211.625 59.3102 209.915 60.1716 208.446C61.0329 206.951 62.1856 205.786 63.6296 204.95C65.0989 204.114 66.7456 203.696 68.5696 203.696C70.3682 203.696 71.9896 204.114 73.4336 204.95C74.9029 205.786 76.0556 206.951 76.8916 208.446C77.7529 209.915 78.1836 211.625 78.1836 213.576C78.1836 215.527 77.7529 217.249 76.8916 218.744C76.0556 220.213 74.9029 221.366 73.4336 222.202C71.9642 223.038 70.3302 223.456 68.5316 223.456ZM68.5316 219.238C69.7982 219.238 70.9002 218.769 71.8376 217.832C72.7749 216.869 73.2436 215.451 73.2436 213.576C73.2436 211.701 72.7749 210.295 71.8376 209.358C70.9002 208.395 69.8109 207.914 68.5696 207.914C67.2776 207.914 66.1629 208.395 65.2256 209.358C64.3136 210.295 63.8576 211.701 63.8576 213.576C63.8576 215.451 64.3136 216.869 65.2256 217.832C66.1629 218.769 67.2649 219.238 68.5316 219.238ZM82.5325 223V204.152H86.8265L87.2445 206.698C87.8525 205.786 88.6505 205.064 89.6385 204.532C90.6518 203.975 91.8172 203.696 93.1345 203.696C96.0478 203.696 98.1125 204.823 99.3285 207.078C100.013 206.039 100.925 205.216 102.065 204.608C103.23 204 104.497 203.696 105.865 203.696C108.322 203.696 110.209 204.431 111.527 205.9C112.844 207.369 113.503 209.523 113.503 212.36V223H108.639V212.816C108.639 211.195 108.322 209.953 107.689 209.092C107.081 208.231 106.131 207.8 104.839 207.8C103.521 207.8 102.457 208.281 101.647 209.244C100.861 210.207 100.469 211.549 100.469 213.272V223H95.6045V212.816C95.6045 211.195 95.2878 209.953 94.6545 209.092C94.0212 208.231 93.0458 207.8 91.7285 207.8C90.4365 207.8 89.3852 208.281 88.5745 209.244C87.7892 210.207 87.3965 211.549 87.3965 213.272V223H82.5325ZM118.12 223V204.152H122.414L122.832 206.698C123.44 205.786 124.238 205.064 125.226 204.532C126.24 203.975 127.405 203.696 128.722 203.696C131.636 203.696 133.7 204.823 134.916 207.078C135.6 206.039 136.512 205.216 137.652 204.608C138.818 204 140.084 203.696 141.452 203.696C143.91 203.696 145.797 204.431 147.114 205.9C148.432 207.369 149.09 209.523 149.09 212.36V223H144.226V212.816C144.226 211.195 143.91 209.953 143.276 209.092C142.668 208.231 141.718 207.8 140.426 207.8C139.109 207.8 138.045 208.281 137.234 209.244C136.449 210.207 136.056 211.549 136.056 213.272V223H131.192V212.816C131.192 211.195 130.876 209.953 130.242 209.092C129.609 208.231 128.634 207.8 127.316 207.8C126.024 207.8 124.973 208.281 124.162 209.244C123.377 210.207 122.984 211.549 122.984 213.272V223H118.12ZM160.776 223.456C158.42 223.456 156.596 222.721 155.304 221.252C154.038 219.783 153.404 217.629 153.404 214.792V204.152H158.23V214.336C158.23 215.957 158.56 217.199 159.218 218.06C159.877 218.921 160.916 219.352 162.334 219.352C163.677 219.352 164.779 218.871 165.64 217.908C166.527 216.945 166.97 215.603 166.97 213.88V204.152H171.834V223H167.54L167.16 219.808C166.578 220.923 165.729 221.809 164.614 222.468C163.525 223.127 162.246 223.456 160.776 223.456ZM176.827 223V204.152H181.121L181.501 207.344C182.084 206.229 182.92 205.343 184.009 204.684C185.124 204.025 186.429 203.696 187.923 203.696C190.254 203.696 192.065 204.431 193.357 205.9C194.649 207.369 195.295 209.523 195.295 212.36V223H190.431V212.816C190.431 211.195 190.102 209.953 189.443 209.092C188.785 208.231 187.759 207.8 186.365 207.8C184.997 207.8 183.87 208.281 182.983 209.244C182.122 210.207 181.691 211.549 181.691 213.272V223H176.827ZM202.569 201.226C201.682 201.226 200.947 200.96 200.365 200.428C199.807 199.896 199.529 199.225 199.529 198.414C199.529 197.603 199.807 196.945 200.365 196.438C200.947 195.906 201.682 195.64 202.569 195.64C203.455 195.64 204.177 195.906 204.735 196.438C205.317 196.945 205.609 197.603 205.609 198.414C205.609 199.225 205.317 199.896 204.735 200.428C204.177 200.96 203.455 201.226 202.569 201.226ZM200.137 223V204.152H205.001V223H200.137ZM218.475 223C216.499 223 214.916 222.519 213.725 221.556C212.535 220.593 211.939 218.883 211.939 216.426V208.218H208.709V204.152H211.939L212.509 199.098H216.803V204.152H221.895V208.218H216.803V216.464C216.803 217.376 216.993 218.009 217.373 218.364C217.779 218.693 218.463 218.858 219.425 218.858H221.781V223H218.475ZM228.428 231.36L232.798 221.746H231.658L224.324 204.152H229.606L234.888 217.414L240.398 204.152H245.566L233.596 231.36H228.428Z" fill="#04203F"/>
<path d="M30.136 274V262.8H31.832L37.448 271.232V262.8H39.144V274H37.448L31.832 265.568V274H30.136ZM42.3133 264.56C41.9933 264.56 41.7266 264.464 41.5133 264.272C41.3106 264.069 41.2093 263.819 41.2093 263.52C41.2093 263.221 41.3106 262.976 41.5133 262.784C41.7266 262.581 41.9933 262.48 42.3133 262.48C42.6333 262.48 42.8946 262.581 43.0973 262.784C43.3106 262.976 43.4173 263.221 43.4173 263.52C43.4173 263.819 43.3106 264.069 43.0973 264.272C42.8946 264.464 42.6333 264.56 42.3133 264.56ZM41.4653 274V266.064H43.1613V274H41.4653ZM49.1601 274.192C48.3815 274.192 47.6828 274.016 47.0641 273.664C46.4561 273.312 45.9761 272.827 45.6241 272.208C45.2828 271.579 45.1121 270.853 45.1121 270.032C45.1121 269.211 45.2828 268.491 45.6241 267.872C45.9761 267.243 46.4561 266.752 47.0641 266.4C47.6828 266.048 48.3815 265.872 49.1601 265.872C50.1415 265.872 50.9628 266.128 51.6241 266.64C52.2961 267.152 52.7281 267.845 52.9201 268.72H51.1441C51.0375 268.283 50.8028 267.941 50.4401 267.696C50.0775 267.451 49.6508 267.328 49.1601 267.328C48.7441 267.328 48.3601 267.435 48.0081 267.648C47.6561 267.851 47.3735 268.155 47.1601 268.56C46.9468 268.955 46.8401 269.445 46.8401 270.032C46.8401 270.619 46.9468 271.115 47.1601 271.52C47.3735 271.915 47.6561 272.219 48.0081 272.432C48.3601 272.645 48.7441 272.752 49.1601 272.752C49.6508 272.752 50.0775 272.629 50.4401 272.384C50.8028 272.139 51.0375 271.792 51.1441 271.344H52.9201C52.7388 272.197 52.3121 272.885 51.6401 273.408C50.9681 273.931 50.1415 274.192 49.1601 274.192ZM54.7595 274V262.48H56.4555V269.344L59.4955 266.064H61.5275L58.1515 269.664L62.0235 274H59.8795L56.4555 269.936V274H54.7595ZM63.3376 274V266.064H64.8416L64.9696 267.456C65.215 266.965 65.5723 266.581 66.0416 266.304C66.5216 266.016 67.071 265.872 67.6896 265.872C68.6496 265.872 69.4016 266.171 69.9456 266.768C70.5003 267.365 70.7776 268.256 70.7776 269.44V274H69.0976V269.616C69.0976 268.08 68.4683 267.312 67.2096 267.312C66.5803 267.312 66.0576 267.536 65.6416 267.984C65.2363 268.432 65.0336 269.072 65.0336 269.904V274H63.3376ZM75.4631 274.192C74.7911 274.192 74.2365 274.08 73.7991 273.856C73.3618 273.632 73.0365 273.339 72.8231 272.976C72.6098 272.603 72.5031 272.197 72.5031 271.76C72.5031 270.992 72.8018 270.384 73.3991 269.936C73.9965 269.488 74.8498 269.264 75.9591 269.264H78.0391V269.12C78.0391 268.501 77.8685 268.037 77.5271 267.728C77.1965 267.419 76.7645 267.264 76.2311 267.264C75.7618 267.264 75.3511 267.381 74.9991 267.616C74.6578 267.84 74.4498 268.176 74.3751 268.624H72.6791C72.7325 268.048 72.9245 267.557 73.2551 267.152C73.5965 266.736 74.0231 266.421 74.5351 266.208C75.0578 265.984 75.6285 265.872 76.2471 265.872C77.3565 265.872 78.2151 266.165 78.8231 266.752C79.4311 267.328 79.7351 268.117 79.7351 269.12V274H78.2631L78.1191 272.64C77.8951 273.077 77.5698 273.445 77.1431 273.744C76.7165 274.043 76.1565 274.192 75.4631 274.192ZM75.7991 272.816C76.2578 272.816 76.6418 272.709 76.9511 272.496C77.2711 272.272 77.5165 271.979 77.6871 271.616C77.8685 271.253 77.9805 270.853 78.0231 270.416H76.1351C75.4631 270.416 74.9831 270.533 74.6951 270.768C74.4178 271.003 74.2791 271.296 74.2791 271.648C74.2791 272.011 74.4125 272.299 74.6791 272.512C74.9565 272.715 75.3298 272.816 75.7991 272.816ZM81.7126 274V266.064H83.2166L83.3606 267.184C83.6166 266.779 83.9526 266.459 84.3686 266.224C84.7953 265.989 85.286 265.872 85.8406 265.872C87.0993 265.872 87.974 266.368 88.4646 267.36C88.7526 266.901 89.1366 266.539 89.6166 266.272C90.1073 266.005 90.6353 265.872 91.2006 265.872C92.1926 265.872 92.9713 266.171 93.5366 266.768C94.102 267.365 94.3846 268.256 94.3846 269.44V274H92.6886V269.616C92.6886 268.08 92.102 267.312 90.9286 267.312C90.3313 267.312 89.8406 267.536 89.4566 267.984C89.0833 268.432 88.8966 269.072 88.8966 269.904V274H87.2006V269.616C87.2006 268.08 86.6086 267.312 85.4246 267.312C84.838 267.312 84.3526 267.536 83.9686 267.984C83.5953 268.432 83.4086 269.072 83.4086 269.904V274H81.7126ZM100.081 274.192C99.3022 274.192 98.6089 274.021 98.0009 273.68C97.4035 273.328 96.9342 272.843 96.5929 272.224C96.2515 271.605 96.0809 270.885 96.0809 270.064C96.0809 269.232 96.2462 268.501 96.5769 267.872C96.9182 267.243 97.3875 266.752 97.9849 266.4C98.5929 266.048 99.2969 265.872 100.097 265.872C100.876 265.872 101.553 266.048 102.129 266.4C102.705 266.741 103.153 267.2 103.473 267.776C103.793 268.352 103.953 268.987 103.953 269.68C103.953 269.787 103.948 269.904 103.937 270.032C103.937 270.149 103.932 270.283 103.921 270.432H97.7449C97.7982 271.2 98.0489 271.787 98.4969 272.192C98.9555 272.587 99.4835 272.784 100.081 272.784C100.561 272.784 100.961 272.677 101.281 272.464C101.612 272.24 101.857 271.941 102.017 271.568H103.713C103.5 272.315 103.073 272.939 102.433 273.44C101.804 273.941 101.02 274.192 100.081 274.192ZM100.081 267.264C99.5155 267.264 99.0142 267.435 98.5769 267.776C98.1395 268.107 97.8729 268.608 97.7769 269.28H102.257C102.225 268.661 102.006 268.171 101.601 267.808C101.196 267.445 100.689 267.264 100.081 267.264Z" fill="#04203F"/>
<path d="M29.72 370V368.688L35.064 360.24H29.784V358.8H37.032V360.112L31.672 368.56H37.08V370H29.72ZM39.8289 360.56C39.5089 360.56 39.2422 360.464 39.0289 360.272C38.8262 360.069 38.7249 359.819 38.7249 359.52C38.7249 359.221 38.8262 358.976 39.0289 358.784C39.2422 358.581 39.5089 358.48 39.8289 358.48C40.1489 358.48 40.4102 358.581 40.6129 358.784C40.8262 358.976 40.9329 359.221 40.9329 359.52C40.9329 359.819 40.8262 360.069 40.6129 360.272C40.4102 360.464 40.1489 360.56 39.8289 360.56ZM38.9809 370V362.064H40.6769V370H38.9809ZM42.9158 373.52V362.064H44.4358L44.6118 363.296C44.8678 362.923 45.2198 362.592 45.6678 362.304C46.1158 362.016 46.6918 361.872 47.3958 361.872C48.1638 361.872 48.8411 362.053 49.4278 362.416C50.0144 362.779 50.4731 363.275 50.8038 363.904C51.1451 364.533 51.3158 365.248 51.3158 366.048C51.3158 366.848 51.1451 367.563 50.8038 368.192C50.4731 368.811 50.0144 369.301 49.4278 369.664C48.8411 370.016 48.1584 370.192 47.3798 370.192C46.7611 370.192 46.2118 370.069 45.7318 369.824C45.2624 369.579 44.8891 369.232 44.6118 368.784V373.52H42.9158ZM47.0918 368.72C47.8171 368.72 48.4144 368.475 48.8838 367.984C49.3531 367.483 49.5878 366.832 49.5878 366.032C49.5878 365.509 49.4811 365.045 49.2678 364.64C49.0544 364.235 48.7611 363.92 48.3878 363.696C48.0144 363.461 47.5824 363.344 47.0918 363.344C46.3664 363.344 45.7691 363.595 45.2998 364.096C44.8411 364.597 44.6118 365.243 44.6118 366.032C44.6118 366.832 44.8411 367.483 45.2998 367.984C45.7691 368.475 46.3664 368.72 47.0918 368.72ZM56.9101 370.192C56.1315 370.192 55.4328 370.016 54.8141 369.664C54.2061 369.312 53.7261 368.827 53.3741 368.208C53.0328 367.579 52.8621 366.853 52.8621 366.032C52.8621 365.211 53.0328 364.491 53.3741 363.872C53.7261 363.243 54.2061 362.752 54.8141 362.4C55.4328 362.048 56.1315 361.872 56.9101 361.872C57.8915 361.872 58.7128 362.128 59.3741 362.64C60.0461 363.152 60.4781 363.845 60.6701 364.72H58.8941C58.7875 364.283 58.5528 363.941 58.1901 363.696C57.8275 363.451 57.4008 363.328 56.9101 363.328C56.4941 363.328 56.1101 363.435 55.7581 363.648C55.4061 363.851 55.1235 364.155 54.9101 364.56C54.6968 364.955 54.5901 365.445 54.5901 366.032C54.5901 366.619 54.6968 367.115 54.9101 367.52C55.1235 367.915 55.4061 368.219 55.7581 368.432C56.1101 368.645 56.4941 368.752 56.9101 368.752C57.4008 368.752 57.8275 368.629 58.1901 368.384C58.5528 368.139 58.7875 367.792 58.8941 367.344H60.6701C60.4888 368.197 60.0621 368.885 59.3901 369.408C58.7181 369.931 57.8915 370.192 56.9101 370.192ZM66.2215 370.192C65.4642 370.192 64.7815 370.021 64.1735 369.68C63.5762 369.328 63.1015 368.843 62.7495 368.224C62.3975 367.595 62.2215 366.864 62.2215 366.032C62.2215 365.2 62.3975 364.475 62.7495 363.856C63.1122 363.227 63.5975 362.741 64.2055 362.4C64.8135 362.048 65.4908 361.872 66.2375 361.872C66.9948 361.872 67.6722 362.048 68.2695 362.4C68.8775 362.741 69.3575 363.227 69.7095 363.856C70.0722 364.475 70.2535 365.2 70.2535 366.032C70.2535 366.864 70.0722 367.595 69.7095 368.224C69.3575 368.843 68.8775 369.328 68.2695 369.68C67.6615 370.021 66.9788 370.192 66.2215 370.192ZM66.2215 368.736C66.6268 368.736 67.0002 368.635 67.3415 368.432C67.6935 368.229 67.9762 367.931 68.1895 367.536C68.4028 367.131 68.5095 366.629 68.5095 366.032C68.5095 365.435 68.4028 364.939 68.1895 364.544C67.9868 364.139 67.7095 363.835 67.3575 363.632C67.0162 363.429 66.6428 363.328 66.2375 363.328C65.8322 363.328 65.4535 363.429 65.1015 363.632C64.7602 363.835 64.4828 364.139 64.2695 364.544C64.0562 364.939 63.9495 365.435 63.9495 366.032C63.9495 366.629 64.0562 367.131 64.2695 367.536C64.4828 367.931 64.7602 368.229 65.1015 368.432C65.4428 368.635 65.8162 368.736 66.2215 368.736ZM75.7036 370.192C74.9356 370.192 74.2583 370.011 73.6716 369.648C73.085 369.285 72.6263 368.789 72.2956 368.16C71.965 367.531 71.7996 366.816 71.7996 366.016C71.7996 365.216 71.965 364.507 72.2956 363.888C72.6263 363.259 73.085 362.768 73.6716 362.416C74.269 362.053 74.9516 361.872 75.7196 361.872C76.349 361.872 76.8983 361.995 77.3676 362.24C77.8476 362.485 78.221 362.832 78.4876 363.28V358.48H80.1836V370H78.6636L78.4876 368.768C78.2316 369.141 77.8796 369.472 77.4316 369.76C76.9836 370.048 76.4076 370.192 75.7036 370.192ZM76.0076 368.72C76.733 368.72 77.325 368.469 77.7836 367.968C78.253 367.467 78.4876 366.821 78.4876 366.032C78.4876 365.232 78.253 364.587 77.7836 364.096C77.325 363.595 76.733 363.344 76.0076 363.344C75.2823 363.344 74.685 363.595 74.2156 364.096C73.7463 364.587 73.5116 365.232 73.5116 366.032C73.5116 366.555 73.6183 367.019 73.8316 367.424C74.045 367.829 74.3383 368.149 74.7116 368.384C75.0956 368.608 75.5276 368.72 76.0076 368.72ZM86.034 370.192C85.2553 370.192 84.562 370.021 83.954 369.68C83.3567 369.328 82.8873 368.843 82.546 368.224C82.2047 367.605 82.034 366.885 82.034 366.064C82.034 365.232 82.1993 364.501 82.53 363.872C82.8713 363.243 83.3407 362.752 83.938 362.4C84.546 362.048 85.25 361.872 86.05 361.872C86.8287 361.872 87.506 362.048 88.082 362.4C88.658 362.741 89.106 363.2 89.426 363.776C89.746 364.352 89.906 364.987 89.906 365.68C89.906 365.787 89.9007 365.904 89.89 366.032C89.89 366.149 89.8847 366.283 89.874 366.432H83.698C83.7513 367.2 84.002 367.787 84.45 368.192C84.9087 368.587 85.4367 368.784 86.034 368.784C86.514 368.784 86.914 368.677 87.234 368.464C87.5647 368.24 87.81 367.941 87.97 367.568H89.666C89.4527 368.315 89.026 368.939 88.386 369.44C87.7567 369.941 86.9727 370.192 86.034 370.192ZM86.034 363.264C85.4687 363.264 84.9673 363.435 84.53 363.776C84.0927 364.107 83.826 364.608 83.73 365.28H88.21C88.178 364.661 87.9593 364.171 87.554 363.808C87.1487 363.445 86.642 363.264 86.034 363.264Z" fill="#04203F"/>
<path d="M34.016 468V462.736L29.696 456.72H31.616L34.88 461.28L38.144 456.72H39.984L35.664 462.752V468H34.016ZM42.9343 468.144C42.1449 468.144 41.4623 467.979 40.8863 467.648C40.3103 467.317 39.8623 466.853 39.5423 466.256C39.2329 465.648 39.0783 464.928 39.0783 464.096C39.0783 463.264 39.2329 462.549 39.5423 461.952C39.8623 461.344 40.3103 460.875 40.8863 460.544C41.4623 460.213 42.1449 460.048 42.9343 460.048C43.7023 460.048 44.3743 460.213 44.9503 460.544C45.5263 460.875 45.9743 461.344 46.2943 461.952C46.6143 462.549 46.7743 463.264 46.7743 464.096C46.7743 464.928 46.6143 465.648 46.2943 466.256C45.9743 466.853 45.5263 467.317 44.9503 467.648C44.3743 467.979 43.7023 468.144 42.9343 468.144ZM42.9343 466.896C43.5956 466.896 44.1289 466.656 44.5343 466.176C44.9396 465.696 45.1423 465.003 45.1423 464.096C45.1423 463.189 44.9396 462.501 44.5343 462.032C44.1289 461.552 43.5956 461.312 42.9343 461.312C42.2623 461.312 41.7236 461.552 41.3183 462.032C40.9129 462.501 40.7103 463.189 40.7103 464.096C40.7103 465.003 40.9129 465.696 41.3183 466.176C41.7236 466.656 42.2623 466.896 42.9343 466.896ZM51.3731 468.144C49.4851 468.144 48.5411 467.093 48.5411 464.992V460.192H50.1571V465.008C50.1571 465.637 50.2851 466.101 50.5411 466.4C50.7971 466.699 51.2025 466.848 51.7571 466.848C52.3651 466.848 52.8558 466.645 53.2291 466.24C53.6131 465.835 53.8051 465.291 53.8051 464.608V460.192H55.4211V468H53.8531V466.752C53.5971 467.211 53.2558 467.557 52.8291 467.792C52.4025 468.027 51.9171 468.144 51.3731 468.144ZM64.4456 468.144C63.5923 468.144 62.9523 467.904 62.5256 467.424C62.1096 466.944 61.9016 466.24 61.9016 465.312V456.72H63.5176V465.216C63.5176 466.272 63.9496 466.8 64.8136 466.8C64.9416 466.8 65.059 466.795 65.1656 466.784C65.283 466.773 65.4003 466.752 65.5176 466.72L65.4856 468.016C65.123 468.101 64.7763 468.144 64.4456 468.144ZM66.6483 458.384V456.704H68.5363V458.384H66.6483ZM66.7923 468V460.192H68.4083V468H66.7923ZM72.9709 468L69.6109 460.192H71.3549L73.7389 466.128L76.1869 460.192H77.8349L74.4269 468H72.9709ZM82.5188 468.144C81.2388 468.144 80.2308 467.787 79.4948 467.072C78.7588 466.347 78.3908 465.36 78.3908 464.112C78.3908 463.312 78.5508 462.608 78.8708 462C79.2014 461.381 79.6548 460.901 80.2308 460.56C80.8068 460.219 81.4681 460.048 82.2148 460.048C83.2921 460.048 84.1401 460.395 84.7588 461.088C85.3774 461.771 85.6868 462.715 85.6868 463.92V464.464H79.9588C80.0761 466.085 80.9348 466.896 82.5348 466.896C82.9828 466.896 83.4201 466.827 83.8468 466.688C84.2841 466.549 84.6948 466.32 85.0788 466L85.5588 467.12C85.2068 467.44 84.7534 467.691 84.1988 467.872C83.6441 468.053 83.0841 468.144 82.5188 468.144ZM82.2788 461.184C81.6068 461.184 81.0734 461.392 80.6788 461.808C80.2841 462.224 80.0441 462.779 79.9588 463.472H84.3268C84.2948 462.747 84.1028 462.187 83.7508 461.792C83.3988 461.387 82.9081 461.184 82.2788 461.184ZM91.5076 458.384V456.704H93.3956V458.384H91.5076ZM91.6516 468V460.192H93.2676V468H91.6516ZM95.5423 468V460.192H97.1103V461.488C97.3769 461.019 97.7396 460.661 98.1983 460.416C98.6676 460.171 99.1903 460.048 99.7663 460.048C101.612 460.048 102.534 461.093 102.534 463.184V468H100.918V463.28C100.918 462.608 100.785 462.117 100.518 461.808C100.262 461.499 99.8569 461.344 99.3023 461.344C98.6516 461.344 98.1289 461.552 97.7343 461.968C97.3503 462.373 97.1583 462.912 97.1583 463.584V468H95.5423ZM108.004 468L113.028 456.72H114.404L119.444 468H117.748L116.564 465.248H110.852L109.684 468H108.004ZM113.7 458.56L111.444 463.904H116.004L113.732 458.56H113.7ZM123.289 468.144C122.436 468.144 121.796 467.904 121.369 467.424C120.953 466.944 120.745 466.24 120.745 465.312V456.72H122.361V465.216C122.361 466.272 122.793 466.8 123.657 466.8C123.785 466.8 123.903 466.795 124.009 466.784C124.127 466.773 124.244 466.752 124.361 466.72L124.329 468.016C123.967 468.101 123.62 468.144 123.289 468.144ZM128.132 468.144C127.588 468.144 127.103 468.037 126.676 467.824C126.249 467.611 125.908 467.323 125.652 466.96C125.407 466.597 125.284 466.187 125.284 465.728C125.284 465.152 125.428 464.699 125.716 464.368C126.015 464.037 126.5 463.797 127.172 463.648C127.855 463.499 128.772 463.424 129.924 463.424H130.468V463.008C130.468 462.4 130.34 461.963 130.084 461.696C129.828 461.429 129.407 461.296 128.82 461.296C128.372 461.296 127.924 461.365 127.476 461.504C127.028 461.632 126.569 461.84 126.1 462.128L125.604 460.992C126.009 460.704 126.516 460.475 127.124 460.304C127.732 460.133 128.313 460.048 128.868 460.048C129.935 460.048 130.724 460.304 131.236 460.816C131.748 461.317 132.004 462.107 132.004 463.184V468H130.484V466.704C130.292 467.152 129.993 467.504 129.588 467.76C129.183 468.016 128.697 468.144 128.132 468.144ZM128.452 466.992C129.028 466.992 129.508 466.789 129.892 466.384C130.276 465.979 130.468 465.467 130.468 464.848V464.416H129.94C129.161 464.416 128.548 464.453 128.1 464.528C127.663 464.603 127.348 464.731 127.156 464.912C126.975 465.083 126.884 465.323 126.884 465.632C126.884 466.037 127.023 466.368 127.3 466.624C127.577 466.869 127.961 466.992 128.452 466.992ZM134.262 468V460.192H135.83V461.456C136.064 461.008 136.39 460.661 136.806 460.416C137.222 460.171 137.707 460.048 138.262 460.048C139.456 460.048 140.23 460.571 140.582 461.616C140.827 461.125 141.179 460.741 141.638 460.464C142.096 460.187 142.619 460.048 143.206 460.048C144.955 460.048 145.83 461.093 145.83 463.184V468H144.214V463.264C144.214 462.603 144.096 462.117 143.862 461.808C143.638 461.499 143.264 461.344 142.742 461.344C142.155 461.344 141.691 461.552 141.35 461.968C141.008 462.373 140.838 462.928 140.838 463.632V468H139.222V463.264C139.222 462.603 139.11 462.117 138.886 461.808C138.662 461.499 138.288 461.344 137.766 461.344C137.179 461.344 136.715 461.552 136.374 461.968C136.043 462.373 135.878 462.928 135.878 463.632V468H134.262ZM151.753 468.144C150.473 468.144 149.465 467.787 148.729 467.072C147.993 466.347 147.625 465.36 147.625 464.112C147.625 463.312 147.785 462.608 148.105 462C148.436 461.381 148.889 460.901 149.465 460.56C150.041 460.219 150.702 460.048 151.449 460.048C152.526 460.048 153.374 460.395 153.993 461.088C154.612 461.771 154.921 462.715 154.921 463.92V464.464H149.193C149.31 466.085 150.169 466.896 151.769 466.896C152.217 466.896 152.654 466.827 153.081 466.688C153.518 466.549 153.929 466.32 154.313 466L154.793 467.12C154.441 467.44 153.988 467.691 153.433 467.872C152.878 468.053 152.318 468.144 151.753 468.144ZM151.513 461.184C150.841 461.184 150.308 461.392 149.913 461.808C149.518 462.224 149.278 462.779 149.193 463.472H153.561C153.529 462.747 153.337 462.187 152.985 461.792C152.633 461.387 152.142 461.184 151.513 461.184ZM159.659 468.144C158.976 468.144 158.374 467.984 157.851 467.664C157.339 467.333 156.939 466.864 156.651 466.256C156.363 465.648 156.219 464.928 156.219 464.096C156.219 463.264 156.363 462.549 156.651 461.952C156.939 461.344 157.339 460.875 157.851 460.544C158.363 460.213 158.966 460.048 159.659 460.048C160.246 460.048 160.768 460.176 161.227 460.432C161.686 460.688 162.027 461.035 162.251 461.472V456.72H163.867V468H162.283V466.64C162.059 467.109 161.712 467.477 161.243 467.744C160.784 468.011 160.256 468.144 159.659 468.144ZM160.075 466.896C160.736 466.896 161.27 466.656 161.675 466.176C162.08 465.696 162.283 465.003 162.283 464.096C162.283 463.189 162.08 462.501 161.675 462.032C161.27 461.552 160.736 461.312 160.075 461.312C159.403 461.312 158.864 461.552 158.459 462.032C158.054 462.501 157.851 463.189 157.851 464.096C157.851 465.003 158.054 465.696 158.459 466.176C158.864 466.656 159.403 466.896 160.075 466.896ZM168.632 468.144C168.088 468.144 167.603 468.037 167.176 467.824C166.749 467.611 166.408 467.323 166.152 466.96C165.907 466.597 165.784 466.187 165.784 465.728C165.784 465.152 165.928 464.699 166.216 464.368C166.515 464.037 167 463.797 167.672 463.648C168.355 463.499 169.272 463.424 170.424 463.424H170.968V463.008C170.968 462.4 170.84 461.963 170.584 461.696C170.328 461.429 169.907 461.296 169.32 461.296C168.872 461.296 168.424 461.365 167.976 461.504C167.528 461.632 167.069 461.84 166.6 462.128L166.104 460.992C166.509 460.704 167.016 460.475 167.624 460.304C168.232 460.133 168.813 460.048 169.368 460.048C170.435 460.048 171.224 460.304 171.736 460.816C172.248 461.317 172.504 462.107 172.504 463.184V468H170.984V466.704C170.792 467.152 170.493 467.504 170.088 467.76C169.683 468.016 169.197 468.144 168.632 468.144ZM168.952 466.992C169.528 466.992 170.008 466.789 170.392 466.384C170.776 465.979 170.968 465.467 170.968 464.848V464.416H170.44C169.661 464.416 169.048 464.453 168.6 464.528C168.163 464.603 167.848 464.731 167.656 464.912C167.475 465.083 167.384 465.323 167.384 465.632C167.384 466.037 167.523 466.368 167.8 466.624C168.077 466.869 168.461 466.992 168.952 466.992ZM175.354 469.968L174.65 469.424C174.895 469.157 175.076 468.912 175.194 468.688C175.311 468.464 175.386 468.235 175.418 468H174.538V466.096H176.442V467.392C176.442 467.883 176.362 468.331 176.202 468.736C176.042 469.152 175.759 469.563 175.354 469.968ZM187.962 468.144C186.82 468.144 185.844 467.909 185.034 467.44C184.223 466.971 183.599 466.304 183.162 465.44C182.735 464.565 182.522 463.536 182.522 462.352C182.522 461.168 182.735 460.144 183.162 459.28C183.599 458.416 184.223 457.749 185.034 457.28C185.844 456.811 186.82 456.576 187.962 456.576C188.73 456.576 189.444 456.699 190.106 456.944C190.778 457.179 191.338 457.52 191.786 457.968L191.21 459.296C190.719 458.859 190.212 458.544 189.69 458.352C189.178 458.149 188.618 458.048 188.01 458.048C186.794 458.048 185.866 458.421 185.226 459.168C184.586 459.915 184.266 460.976 184.266 462.352C184.266 463.728 184.586 464.795 185.226 465.552C185.866 466.299 186.794 466.672 188.01 466.672C188.618 466.672 189.178 466.576 189.69 466.384C190.212 466.181 190.719 465.861 191.21 465.424L191.786 466.752C191.338 467.189 190.778 467.531 190.106 467.776C189.444 468.021 188.73 468.144 187.962 468.144ZM192.332 468L197.356 456.72H198.732L203.772 468H202.076L200.892 465.248H195.18L194.012 468H192.332ZM198.028 458.56L195.772 463.904H200.332L198.06 458.56H198.028ZM206.01 469.968L205.306 469.424C205.551 469.157 205.733 468.912 205.85 468.688C205.967 468.464 206.042 468.235 206.074 468H205.194V466.096H207.098V467.392C207.098 467.883 207.018 468.331 206.858 468.736C206.698 469.152 206.415 469.563 206.01 469.968ZM218.618 468.144C217.477 468.144 216.501 467.909 215.69 467.44C214.879 466.971 214.255 466.304 213.818 465.44C213.391 464.565 213.178 463.536 213.178 462.352C213.178 461.168 213.391 460.144 213.818 459.28C214.255 458.416 214.879 457.749 215.69 457.28C216.501 456.811 217.477 456.576 218.618 456.576C219.386 456.576 220.101 456.699 220.762 456.944C221.434 457.179 221.994 457.52 222.442 457.968L221.866 459.296C221.375 458.859 220.869 458.544 220.346 458.352C219.834 458.149 219.274 458.048 218.666 458.048C217.45 458.048 216.522 458.421 215.882 459.168C215.242 459.915 214.922 460.976 214.922 462.352C214.922 463.728 215.242 464.795 215.882 465.552C216.522 466.299 217.45 466.672 218.666 466.672C219.274 466.672 219.834 466.576 220.346 466.384C220.869 466.181 221.375 465.861 221.866 465.424L222.442 466.752C221.994 467.189 221.434 467.531 220.762 467.776C220.101 468.021 219.386 468.144 218.618 468.144ZM227.028 468.144C226.239 468.144 225.556 467.979 224.98 467.648C224.404 467.317 223.956 466.853 223.636 466.256C223.327 465.648 223.172 464.928 223.172 464.096C223.172 463.264 223.327 462.549 223.636 461.952C223.956 461.344 224.404 460.875 224.98 460.544C225.556 460.213 226.239 460.048 227.028 460.048C227.796 460.048 228.468 460.213 229.044 460.544C229.62 460.875 230.068 461.344 230.388 461.952C230.708 462.549 230.868 463.264 230.868 464.096C230.868 464.928 230.708 465.648 230.388 466.256C230.068 466.853 229.62 467.317 229.044 467.648C228.468 467.979 227.796 468.144 227.028 468.144ZM227.028 466.896C227.689 466.896 228.223 466.656 228.628 466.176C229.033 465.696 229.236 465.003 229.236 464.096C229.236 463.189 229.033 462.501 228.628 462.032C228.223 461.552 227.689 461.312 227.028 461.312C226.356 461.312 225.817 461.552 225.412 462.032C225.007 462.501 224.804 463.189 224.804 464.096C224.804 465.003 225.007 465.696 225.412 466.176C225.817 466.656 226.356 466.896 227.028 466.896ZM232.683 468V460.192H234.251V461.488C234.518 461.019 234.88 460.661 235.339 460.416C235.808 460.171 236.331 460.048 236.907 460.048C238.752 460.048 239.675 461.093 239.675 463.184V468H238.059V463.28C238.059 462.608 237.926 462.117 237.659 461.808C237.403 461.499 236.998 461.344 236.443 461.344C235.792 461.344 235.27 461.552 234.875 461.968C234.491 462.373 234.299 462.912 234.299 463.584V468H232.683ZM245.438 471.024C244.734 471.024 244.078 470.939 243.47 470.768C242.862 470.608 242.323 470.352 241.854 470L242.35 468.848C242.819 469.168 243.299 469.403 243.79 469.552C244.28 469.701 244.792 469.776 245.326 469.776C246.819 469.776 247.566 469.029 247.566 467.536V466.304C247.342 466.773 246.99 467.141 246.51 467.408C246.04 467.675 245.512 467.808 244.926 467.808C244.222 467.808 243.608 467.648 243.086 467.328C242.563 466.997 242.158 466.544 241.87 465.968C241.582 465.381 241.438 464.699 241.438 463.92C241.438 463.152 241.582 462.48 241.87 461.904C242.158 461.317 242.563 460.864 243.086 460.544C243.608 460.213 244.222 460.048 244.926 460.048C245.523 460.048 246.056 460.181 246.526 460.448C246.995 460.715 247.342 461.083 247.566 461.552V460.192H249.134V467.344C249.134 468.571 248.819 469.488 248.19 470.096C247.56 470.715 246.643 471.024 245.438 471.024ZM245.31 466.544C245.992 466.544 246.536 466.309 246.942 465.84C247.347 465.371 247.55 464.731 247.55 463.92C247.55 463.109 247.347 462.475 246.942 462.016C246.536 461.547 245.992 461.312 245.31 461.312C244.627 461.312 244.083 461.547 243.678 462.016C243.272 462.475 243.07 463.109 243.07 463.92C243.07 464.731 243.272 465.371 243.678 465.84C244.083 466.309 244.627 466.544 245.31 466.544ZM251.402 468V460.192H252.97V461.584C253.375 460.656 254.218 460.139 255.498 460.032L256.026 460L256.138 461.376L255.162 461.472C253.743 461.611 253.034 462.341 253.034 463.664V468H251.402ZM260.925 468.144C259.645 468.144 258.637 467.787 257.901 467.072C257.165 466.347 256.797 465.36 256.797 464.112C256.797 463.312 256.957 462.608 257.277 462C257.608 461.381 258.061 460.901 258.637 460.56C259.213 460.219 259.874 460.048 260.621 460.048C261.698 460.048 262.546 460.395 263.165 461.088C263.784 461.771 264.093 462.715 264.093 463.92V464.464H258.365C258.482 466.085 259.341 466.896 260.941 466.896C261.389 466.896 261.826 466.827 262.253 466.688C262.69 466.549 263.101 466.32 263.485 466L263.965 467.12C263.613 467.44 263.16 467.691 262.605 467.872C262.05 468.053 261.49 468.144 260.925 468.144ZM260.685 461.184C260.013 461.184 259.48 461.392 259.085 461.808C258.69 462.224 258.45 462.779 258.365 463.472H262.733C262.701 462.747 262.509 462.187 262.157 461.792C261.805 461.387 261.314 461.184 260.685 461.184ZM268.591 468.144C267.951 468.144 267.353 468.064 266.799 467.904C266.244 467.733 265.78 467.499 265.407 467.2L265.871 466.112C266.265 466.389 266.697 466.603 267.167 466.752C267.647 466.901 268.127 466.976 268.607 466.976C269.172 466.976 269.599 466.875 269.887 466.672C270.175 466.469 270.319 466.197 270.319 465.856C270.319 465.579 270.223 465.365 270.031 465.216C269.839 465.056 269.551 464.933 269.167 464.848L267.647 464.544C266.303 464.267 265.631 463.573 265.631 462.464C265.631 461.728 265.924 461.141 266.511 460.704C267.097 460.267 267.865 460.048 268.815 460.048C269.359 460.048 269.876 460.128 270.367 460.288C270.868 460.448 271.284 460.688 271.615 461.008L271.151 462.096C270.831 461.819 270.463 461.605 270.047 461.456C269.631 461.307 269.22 461.232 268.815 461.232C268.26 461.232 267.839 461.339 267.551 461.552C267.263 461.755 267.119 462.032 267.119 462.384C267.119 462.917 267.471 463.259 268.175 463.408L269.695 463.712C270.388 463.851 270.911 464.085 271.263 464.416C271.625 464.747 271.807 465.195 271.807 465.76C271.807 466.507 271.513 467.093 270.927 467.52C270.34 467.936 269.561 468.144 268.591 468.144ZM276.341 468.144C275.701 468.144 275.103 468.064 274.549 467.904C273.994 467.733 273.53 467.499 273.157 467.2L273.621 466.112C274.015 466.389 274.447 466.603 274.917 466.752C275.397 466.901 275.877 466.976 276.357 466.976C276.922 466.976 277.349 466.875 277.637 466.672C277.925 466.469 278.069 466.197 278.069 465.856C278.069 465.579 277.973 465.365 277.781 465.216C277.589 465.056 277.301 464.933 276.917 464.848L275.397 464.544C274.053 464.267 273.381 463.573 273.381 462.464C273.381 461.728 273.674 461.141 274.261 460.704C274.847 460.267 275.615 460.048 276.565 460.048C277.109 460.048 277.626 460.128 278.117 460.288C278.618 460.448 279.034 460.688 279.365 461.008L278.901 462.096C278.581 461.819 278.213 461.605 277.797 461.456C277.381 461.307 276.97 461.232 276.565 461.232C276.01 461.232 275.589 461.339 275.301 461.552C275.013 461.755 274.869 462.032 274.869 462.384C274.869 462.917 275.221 463.259 275.925 463.408L277.445 463.712C278.138 463.851 278.661 464.085 279.013 464.416C279.375 464.747 279.557 465.195 279.557 465.76C279.557 466.507 279.263 467.093 278.677 467.52C278.09 467.936 277.311 468.144 276.341 468.144ZM281.211 458.384V456.704H283.099V458.384H281.211ZM281.355 468V460.192H282.971V468H281.355ZM288.637 468.144C287.848 468.144 287.165 467.979 286.589 467.648C286.013 467.317 285.565 466.853 285.245 466.256C284.936 465.648 284.781 464.928 284.781 464.096C284.781 463.264 284.936 462.549 285.245 461.952C285.565 461.344 286.013 460.875 286.589 460.544C287.165 460.213 287.848 460.048 288.637 460.048C289.405 460.048 290.077 460.213 290.653 460.544C291.229 460.875 291.677 461.344 291.997 461.952C292.317 462.549 292.477 463.264 292.477 464.096C292.477 464.928 292.317 465.648 291.997 466.256C291.677 466.853 291.229 467.317 290.653 467.648C290.077 467.979 289.405 468.144 288.637 468.144ZM288.637 466.896C289.299 466.896 289.832 466.656 290.237 466.176C290.643 465.696 290.845 465.003 290.845 464.096C290.845 463.189 290.643 462.501 290.237 462.032C289.832 461.552 289.299 461.312 288.637 461.312C287.965 461.312 287.427 461.552 287.021 462.032C286.616 462.501 286.413 463.189 286.413 464.096C286.413 465.003 286.616 465.696 287.021 466.176C287.427 466.656 287.965 466.896 288.637 466.896ZM294.292 468V460.192H295.86V461.488C296.127 461.019 296.49 460.661 296.948 460.416C297.418 460.171 297.94 460.048 298.516 460.048C300.362 460.048 301.284 461.093 301.284 463.184V468H299.668V463.28C299.668 462.608 299.535 462.117 299.268 461.808C299.012 461.499 298.607 461.344 298.052 461.344C297.402 461.344 296.879 461.552 296.484 461.968C296.1 462.373 295.908 462.912 295.908 463.584V468H294.292ZM306.007 468.144C305.463 468.144 304.978 468.037 304.551 467.824C304.124 467.611 303.783 467.323 303.527 466.96C303.282 466.597 303.159 466.187 303.159 465.728C303.159 465.152 303.303 464.699 303.591 464.368C303.89 464.037 304.375 463.797 305.047 463.648C305.73 463.499 306.647 463.424 307.799 463.424H308.343V463.008C308.343 462.4 308.215 461.963 307.959 461.696C307.703 461.429 307.282 461.296 306.695 461.296C306.247 461.296 305.799 461.365 305.351 461.504C304.903 461.632 304.444 461.84 303.975 462.128L303.479 460.992C303.884 460.704 304.391 460.475 304.999 460.304C305.607 460.133 306.188 460.048 306.743 460.048C307.81 460.048 308.599 460.304 309.111 460.816C309.623 461.317 309.879 462.107 309.879 463.184V468H308.359V466.704C308.167 467.152 307.868 467.504 307.463 467.76C307.058 468.016 306.572 468.144 306.007 468.144ZM306.327 466.992C306.903 466.992 307.383 466.789 307.767 466.384C308.151 465.979 308.343 465.467 308.343 464.848V464.416H307.815C307.036 464.416 306.423 464.453 305.975 464.528C305.538 464.603 305.223 464.731 305.031 464.912C304.85 465.083 304.759 465.323 304.759 465.632C304.759 466.037 304.898 466.368 305.175 466.624C305.452 466.869 305.836 466.992 306.327 466.992ZM314.649 468.144C313.795 468.144 313.155 467.904 312.729 467.424C312.313 466.944 312.105 466.24 312.105 465.312V456.72H313.721V465.216C313.721 466.272 314.153 466.8 315.017 466.8C315.145 466.8 315.262 466.795 315.369 466.784C315.486 466.773 315.603 466.752 315.721 466.72L315.689 468.016C315.326 468.101 314.979 468.144 314.649 468.144ZM31.312 490V478.72H35.296C37.152 478.72 38.5813 479.205 39.584 480.176C40.5973 481.147 41.104 482.539 41.104 484.352C41.104 486.165 40.5973 487.563 39.584 488.544C38.5813 489.515 37.152 490 35.296 490H31.312ZM32.976 488.608H35.2C37.984 488.608 39.376 487.189 39.376 484.352C39.376 481.525 37.984 480.112 35.2 480.112H32.976V488.608ZM43.0076 480.384V478.704H44.8956V480.384H43.0076ZM43.1516 490V482.192H44.7676V490H43.1516ZM49.7783 490.144C49.1383 490.144 48.5409 490.064 47.9863 489.904C47.4316 489.733 46.9676 489.499 46.5943 489.2L47.0583 488.112C47.4529 488.389 47.8849 488.603 48.3543 488.752C48.8343 488.901 49.3143 488.976 49.7943 488.976C50.3596 488.976 50.7863 488.875 51.0743 488.672C51.3623 488.469 51.5063 488.197 51.5063 487.856C51.5063 487.579 51.4103 487.365 51.2183 487.216C51.0263 487.056 50.7383 486.933 50.3543 486.848L48.8343 486.544C47.4903 486.267 46.8183 485.573 46.8183 484.464C46.8183 483.728 47.1116 483.141 47.6983 482.704C48.2849 482.267 49.0529 482.048 50.0023 482.048C50.5463 482.048 51.0636 482.128 51.5543 482.288C52.0556 482.448 52.4716 482.688 52.8023 483.008L52.3383 484.096C52.0183 483.819 51.6503 483.605 51.2343 483.456C50.8183 483.307 50.4076 483.232 50.0023 483.232C49.4476 483.232 49.0263 483.339 48.7383 483.552C48.4503 483.755 48.3063 484.032 48.3063 484.384C48.3063 484.917 48.6583 485.259 49.3623 485.408L50.8823 485.712C51.5756 485.851 52.0983 486.085 52.4503 486.416C52.8129 486.747 52.9943 487.195 52.9943 487.76C52.9943 488.507 52.7009 489.093 52.1143 489.52C51.5276 489.936 50.7489 490.144 49.7783 490.144ZM58.0421 490.144C57.0608 490.144 56.3301 489.893 55.8501 489.392C55.3701 488.891 55.1301 488.165 55.1301 487.216V483.44H53.6101V482.192H55.1301V479.84H56.7461V482.192H59.1621V483.44H56.7461V487.088C56.7461 487.653 56.8635 488.08 57.0981 488.368C57.3435 488.656 57.7381 488.8 58.2821 488.8C58.4528 488.8 58.6181 488.784 58.7781 488.752C58.9381 488.709 59.0981 488.661 59.2581 488.608L59.5141 489.824C59.3541 489.92 59.1301 489.995 58.8421 490.048C58.5648 490.112 58.2981 490.144 58.0421 490.144ZM60.5579 490V482.192H62.1259V483.584C62.5312 482.656 63.3739 482.139 64.6539 482.032L65.1819 482L65.2939 483.376L64.3179 483.472C62.8992 483.611 62.1899 484.341 62.1899 485.664V490H60.5579ZM66.3826 480.384V478.704H68.2706V480.384H66.3826ZM66.5266 490V482.192H68.1426V490H66.5266ZM73.8573 490.144C73.0573 490.144 72.3639 489.979 71.7773 489.648C71.2013 489.307 70.7533 488.832 70.4333 488.224C70.1133 487.605 69.9533 486.88 69.9533 486.048C69.9533 484.811 70.3053 483.835 71.0093 483.12C71.7133 482.405 72.6626 482.048 73.8573 482.048C74.3479 482.048 74.8333 482.133 75.3133 482.304C75.7933 482.475 76.1879 482.709 76.4973 483.008L75.9853 484.144C75.6866 483.867 75.3559 483.664 74.9933 483.536C74.6413 483.397 74.3053 483.328 73.9852 483.328C73.2279 483.328 72.6413 483.568 72.2253 484.048C71.8199 484.517 71.6173 485.189 71.6173 486.064C71.6173 486.939 71.8199 487.627 72.2253 488.128C72.6413 488.619 73.2279 488.864 73.9852 488.864C74.3053 488.864 74.6413 488.8 74.9933 488.672C75.3559 488.533 75.6866 488.325 75.9853 488.048L76.4973 489.2C76.1879 489.488 75.7879 489.717 75.2973 489.888C74.8173 490.059 74.3373 490.144 73.8573 490.144ZM81.2296 490.144C80.2483 490.144 79.5176 489.893 79.0376 489.392C78.5576 488.891 78.3176 488.165 78.3176 487.216V483.44H76.7976V482.192H78.3176V479.84H79.9336V482.192H82.3496V483.44H79.9336V487.088C79.9336 487.653 80.051 488.08 80.2856 488.368C80.531 488.656 80.9256 488.8 81.4696 488.8C81.6403 488.8 81.8056 488.784 81.9656 488.752C82.1256 488.709 82.2856 488.661 82.4456 488.608L82.7016 489.824C82.5416 489.92 82.3176 489.995 82.0296 490.048C81.7523 490.112 81.4856 490.144 81.2296 490.144ZM88.6845 490V488.608H91.2445V480.64L89.2445 481.888L88.5725 480.656L91.7245 478.72H92.8925V488.608H95.2925V490H88.6845ZM101.03 490.144C100.273 490.144 99.5529 490.032 98.8703 489.808C98.1876 489.573 97.6169 489.248 97.1583 488.832L97.7343 487.552C98.2356 487.957 98.7529 488.256 99.2863 488.448C99.8196 488.64 100.385 488.736 100.982 488.736C101.75 488.736 102.332 488.571 102.726 488.24C103.132 487.909 103.334 487.435 103.334 486.816C103.334 486.197 103.132 485.739 102.726 485.44C102.332 485.141 101.756 484.992 100.998 484.992H99.2543V483.6H100.838C101.51 483.6 102.038 483.429 102.422 483.088C102.817 482.747 103.014 482.277 103.014 481.68C103.014 481.136 102.833 480.72 102.47 480.432C102.108 480.133 101.59 479.984 100.918 479.984C99.7769 479.984 98.7796 480.395 97.9263 481.216L97.3503 479.952C97.7876 479.515 98.3316 479.179 98.9823 478.944C99.6436 478.699 100.332 478.576 101.046 478.576C102.177 478.576 103.057 478.837 103.686 479.36C104.316 479.872 104.63 480.587 104.63 481.504C104.63 482.123 104.47 482.667 104.15 483.136C103.841 483.605 103.409 483.947 102.854 484.16C103.526 484.331 104.044 484.661 104.406 485.152C104.769 485.632 104.95 486.224 104.95 486.928C104.95 487.92 104.598 488.704 103.894 489.28C103.201 489.856 102.246 490.144 101.03 490.144ZM106.944 490V488.096H108.848V490H106.944Z" fill="#04203F"/>
<rect x="30" y="284" width="315" height="46" rx="3" fill="white"/>
<rect x="30.5" y="284.5" width="314" height="45" rx="2.5" stroke="#D0D0D0" stroke-opacity="0.5"/>
<g filter="url(#filter0_d)">
<rect x="24" y="673" width="327" height="64" fill="#008DFF"/>
<path d="M163.371 711.518V697.518H165.931L172.511 707.378V697.518H175.071V711.518H172.511L165.931 701.678V711.518H163.371ZM177.785 711.518V697.518H186.925V699.578H180.345V703.418H186.325V705.418H180.345V709.458H186.925V711.518H177.785ZM188.668 711.518L193.048 704.438L188.608 697.518H191.548L194.688 702.398L197.568 697.518H200.448L196.068 704.558L200.548 711.518H197.608L194.428 706.578L191.548 711.518H188.668ZM205.791 711.518V699.578H201.711V697.518H212.451V699.578H208.351V711.518H205.791Z" fill="#F9F9F9"/>
</g>
<path d="M41.914 317V301.49H43.718V315.416H51.616V317H41.914ZM57.1865 317.198C54.6198 317.198 53.3365 315.783 53.3365 312.952V306.308H55.1185V312.93C55.1185 313.883 55.3091 314.587 55.6905 315.042C56.0865 315.497 56.7025 315.724 57.5385 315.724C58.4478 315.724 59.1885 315.423 59.7605 314.822C60.3325 314.206 60.6185 313.392 60.6185 312.38V306.308H62.4005V317H60.6625V315.196C60.3251 315.841 59.8485 316.34 59.2325 316.692C58.6311 317.029 57.9491 317.198 57.1865 317.198ZM70.2665 317.198C69.1958 317.198 68.2718 316.971 67.4945 316.516C66.7172 316.047 66.1158 315.394 65.6905 314.558C65.2798 313.707 65.0745 312.717 65.0745 311.588C65.0745 309.887 65.5365 308.552 66.4605 307.584C67.3845 306.601 68.6532 306.11 70.2665 306.11C70.9265 306.11 71.5792 306.227 72.2245 306.462C72.8698 306.697 73.4052 307.027 73.8305 307.452L73.2145 308.75C72.7892 308.339 72.3198 308.039 71.8065 307.848C71.3078 307.657 70.8312 307.562 70.3765 307.562C69.2618 307.562 68.4038 307.914 67.8025 308.618C67.2012 309.307 66.9005 310.305 66.9005 311.61C66.9005 312.886 67.2012 313.898 67.8025 314.646C68.4038 315.379 69.2618 315.746 70.3765 315.746C70.8312 315.746 71.3078 315.651 71.8065 315.46C72.3198 315.269 72.7892 314.961 73.2145 314.536L73.8305 315.834C73.4052 316.259 72.8625 316.597 72.2025 316.846C71.5572 317.081 70.9118 317.198 70.2665 317.198ZM79.1982 317.198C78.4648 317.198 77.8048 317.059 77.2182 316.78C76.6462 316.487 76.1915 316.091 75.8542 315.592C75.5168 315.093 75.3482 314.536 75.3482 313.92C75.3482 313.143 75.5462 312.527 75.9422 312.072C76.3528 311.617 77.0202 311.295 77.9442 311.104C78.8828 310.899 80.1588 310.796 81.7722 310.796H82.4762V310.114C82.4762 309.205 82.2855 308.552 81.9042 308.156C81.5375 307.745 80.9435 307.54 80.1222 307.54C79.4768 307.54 78.8535 307.635 78.2522 307.826C77.6508 308.002 77.0348 308.295 76.4042 308.706L75.7882 307.408C76.3455 307.012 77.0202 306.697 77.8122 306.462C78.6188 306.227 79.3888 306.11 80.1222 306.11C81.5008 306.11 82.5202 306.447 83.1802 307.122C83.8548 307.797 84.1922 308.845 84.1922 310.268V317H82.5202V315.152C82.2415 315.783 81.8088 316.281 81.2222 316.648C80.6502 317.015 79.9755 317.198 79.1982 317.198ZM79.4842 315.856C80.3642 315.856 81.0828 315.555 81.6402 314.954C82.1975 314.338 82.4762 313.561 82.4762 312.622V311.962H81.7942C80.6062 311.962 79.6675 312.021 78.9782 312.138C78.3035 312.241 77.8268 312.431 77.5482 312.71C77.2842 312.974 77.1522 313.341 77.1522 313.81C77.1522 314.411 77.3575 314.903 77.7682 315.284C78.1935 315.665 78.7655 315.856 79.4842 315.856ZM91.1062 317.198C90.2702 317.198 89.4782 317.081 88.7302 316.846C87.9822 316.611 87.3662 316.281 86.8822 315.856L87.4542 314.602C87.9822 315.027 88.5615 315.343 89.1922 315.548C89.8375 315.739 90.4902 315.834 91.1502 315.834C91.9862 315.834 92.6168 315.68 93.0422 315.372C93.4675 315.064 93.6802 314.646 93.6802 314.118C93.6802 313.707 93.5408 313.385 93.2622 313.15C92.9835 312.901 92.5435 312.71 91.9422 312.578L89.9402 312.138C88.1215 311.742 87.2122 310.803 87.2122 309.322C87.2122 308.354 87.5935 307.577 88.3562 306.99C89.1335 306.403 90.1455 306.11 91.3922 306.11C92.1255 306.11 92.8222 306.227 93.4822 306.462C94.1568 306.682 94.7142 307.012 95.1542 307.452L94.5602 308.706C94.1348 308.31 93.6362 308.009 93.0642 307.804C92.5068 307.584 91.9495 307.474 91.3922 307.474C90.5708 307.474 89.9475 307.635 89.5222 307.958C89.0968 308.281 88.8842 308.706 88.8842 309.234C88.8842 310.055 89.4268 310.583 90.5122 310.818L92.5142 311.236C93.4528 311.441 94.1642 311.771 94.6482 312.226C95.1322 312.666 95.3742 313.267 95.3742 314.03C95.3742 315.013 94.9855 315.79 94.2082 316.362C93.4308 316.919 92.3968 317.198 91.1062 317.198Z" fill="black"/>
<rect x="30" y="384" width="147" height="46" rx="3" fill="white"/>
<rect x="30.5" y="384.5" width="146" height="45" rx="2.5" stroke="#D0D0D0" stroke-opacity="0.5"/>
<path d="M45.544 417.198C44.752 417.198 43.9527 417.029 43.146 416.692C42.3393 416.355 41.6793 415.9 41.166 415.328L41.848 413.898C42.376 414.47 42.9553 414.895 43.586 415.174C44.2313 415.453 44.8913 415.592 45.566 415.592C47.0033 415.592 48.1107 415.057 48.888 413.986C49.6653 412.915 50.054 411.324 50.054 409.212V408.112C49.7607 409.08 49.2327 409.843 48.47 410.4C47.722 410.943 46.8347 411.214 45.808 411.214C44.8987 411.214 44.092 411.009 43.388 410.598C42.684 410.173 42.134 409.593 41.738 408.86C41.342 408.127 41.144 407.283 41.144 406.33C41.144 405.347 41.3493 404.482 41.76 403.734C42.1853 402.971 42.7647 402.377 43.498 401.952C44.246 401.512 45.104 401.292 46.072 401.292C47.9053 401.292 49.3133 401.959 50.296 403.294C51.2933 404.614 51.792 406.469 51.792 408.86C51.792 411.529 51.242 413.59 50.142 415.042C49.042 416.479 47.5093 417.198 45.544 417.198ZM46.182 409.696C47.1647 409.696 47.964 409.381 48.58 408.75C49.196 408.105 49.504 407.276 49.504 406.264C49.504 405.237 49.196 404.409 48.58 403.778C47.964 403.133 47.1647 402.81 46.182 402.81C45.214 402.81 44.422 403.133 43.806 403.778C43.19 404.409 42.882 405.237 42.882 406.264C42.882 407.276 43.19 408.105 43.806 408.75C44.422 409.381 45.214 409.696 46.182 409.696ZM61.4854 417V413.678H54.3354V412.314L61.7934 401.49H63.3114V412.138H65.6214V413.678H63.3114V417H61.4854ZM61.4854 412.138V404.46L56.2054 412.138H61.4854ZM73.3128 417.198C72.3155 417.198 71.3621 417.037 70.4528 416.714C69.5435 416.391 68.7735 415.937 68.1428 415.35L68.8248 413.92C70.1888 415.035 71.6775 415.592 73.2908 415.592C74.3615 415.592 75.2048 415.291 75.8208 414.69C76.4368 414.089 76.7448 413.297 76.7448 412.314C76.7448 411.302 76.4515 410.473 75.8648 409.828C75.2781 409.183 74.4715 408.86 73.4448 408.86C71.9635 408.86 70.7975 409.476 69.9468 410.708H68.6268V401.49H77.6248V403.03H70.4088V408.574C71.2595 407.723 72.3815 407.298 73.7748 407.298C74.7428 407.298 75.5861 407.503 76.3048 407.914C77.0235 408.325 77.5735 408.904 77.9548 409.652C78.3508 410.385 78.5488 411.243 78.5488 412.226C78.5488 413.194 78.3361 414.052 77.9108 414.8C77.4855 415.548 76.8768 416.135 76.0848 416.56C75.3075 416.985 74.3835 417.198 73.3128 417.198ZM86.1742 417.198C84.3996 417.198 83.0502 416.516 82.1262 415.152C81.2022 413.788 80.7402 411.815 80.7402 409.234C80.7402 406.638 81.2022 404.665 82.1262 403.316C83.0502 401.967 84.3996 401.292 86.1742 401.292C87.9636 401.292 89.3129 401.967 90.2222 403.316C91.1462 404.651 91.6082 406.616 91.6082 409.212C91.6082 411.808 91.1389 413.788 90.2002 415.152C89.2762 416.516 87.9342 417.198 86.1742 417.198ZM86.1742 415.636C87.4062 415.636 88.3156 415.115 88.9022 414.074C89.5036 413.033 89.8042 411.412 89.8042 409.212C89.8042 407.012 89.5109 405.406 88.9242 404.394C88.3376 403.367 87.4209 402.854 86.1742 402.854C84.9422 402.854 84.0256 403.367 83.4242 404.394C82.8376 405.421 82.5442 407.027 82.5442 409.212C82.5442 411.412 82.8376 413.033 83.4242 414.074C84.0256 415.115 84.9422 415.636 86.1742 415.636ZM95.4936 417V415.46H99.0356V403.668L96.2416 405.428L95.4716 404.086L99.5416 401.49H100.84V415.46H104.162V417H95.4936Z" fill="black"/>
<path d="M30 428H177V428C177 429.105 176.105 430 175 430H32C30.8954 430 30 429.105 30 428V428Z" fill="#13B16F"/>
<path d="M25.761 779V767.8H29.985C31.1477 767.8 32.0277 768.072 32.625 768.616C33.2223 769.16 33.521 769.843 33.521 770.664C33.521 771.379 33.329 771.949 32.945 772.376C32.561 772.792 32.097 773.075 31.553 773.224C31.9797 773.309 32.3583 773.48 32.689 773.736C33.0303 773.992 33.297 774.312 33.489 774.696C33.681 775.08 33.777 775.496 33.777 775.944C33.777 776.52 33.633 777.043 33.345 777.512C33.0677 777.971 32.657 778.333 32.113 778.6C31.569 778.867 30.9023 779 30.113 779H25.761ZM27.457 772.6H29.777C30.4277 772.6 30.9237 772.451 31.265 772.152C31.6063 771.843 31.777 771.421 31.777 770.888C31.777 770.365 31.6063 769.949 31.265 769.64C30.9343 769.331 30.4277 769.176 29.745 769.176H27.457V772.6ZM27.457 777.608H29.889C30.5717 777.608 31.0997 777.448 31.473 777.128C31.857 776.808 32.049 776.36 32.049 775.784C32.049 775.208 31.8517 774.755 31.457 774.424C31.0623 774.083 30.529 773.912 29.857 773.912H27.457V777.608ZM38.26 779.192C37.588 779.192 37.0333 779.08 36.596 778.856C36.1587 778.632 35.8333 778.339 35.62 777.976C35.4067 777.603 35.3 777.197 35.3 776.76C35.3 775.992 35.5987 775.384 36.196 774.936C36.7933 774.488 37.6467 774.264 38.756 774.264H40.836V774.12C40.836 773.501 40.6653 773.037 40.324 772.728C39.9933 772.419 39.5613 772.264 39.028 772.264C38.5587 772.264 38.148 772.381 37.796 772.616C37.4547 772.84 37.2467 773.176 37.172 773.624H35.476C35.5293 773.048 35.7213 772.557 36.052 772.152C36.3933 771.736 36.82 771.421 37.332 771.208C37.8547 770.984 38.4253 770.872 39.044 770.872C40.1533 770.872 41.012 771.165 41.62 771.752C42.228 772.328 42.532 773.117 42.532 774.12V779H41.06L40.916 777.64C40.692 778.077 40.3667 778.445 39.94 778.744C39.5133 779.043 38.9533 779.192 38.26 779.192ZM38.596 777.816C39.0547 777.816 39.4387 777.709 39.748 777.496C40.068 777.272 40.3133 776.979 40.484 776.616C40.6653 776.253 40.7773 775.853 40.82 775.416H38.932C38.26 775.416 37.78 775.533 37.492 775.768C37.2147 776.003 37.076 776.296 37.076 776.648C37.076 777.011 37.2093 777.299 37.476 777.512C37.7533 777.715 38.1267 777.816 38.596 777.816ZM48.2695 779.192C47.4908 779.192 46.7922 779.016 46.1735 778.664C45.5655 778.312 45.0855 777.827 44.7335 777.208C44.3922 776.579 44.2215 775.853 44.2215 775.032C44.2215 774.211 44.3922 773.491 44.7335 772.872C45.0855 772.243 45.5655 771.752 46.1735 771.4C46.7922 771.048 47.4908 770.872 48.2695 770.872C49.2508 770.872 50.0722 771.128 50.7335 771.64C51.4055 772.152 51.8375 772.845 52.0295 773.72H50.2535C50.1468 773.283 49.9122 772.941 49.5495 772.696C49.1868 772.451 48.7602 772.328 48.2695 772.328C47.8535 772.328 47.4695 772.435 47.1175 772.648C46.7655 772.851 46.4828 773.155 46.2695 773.56C46.0562 773.955 45.9495 774.445 45.9495 775.032C45.9495 775.619 46.0562 776.115 46.2695 776.52C46.4828 776.915 46.7655 777.219 47.1175 777.432C47.4695 777.645 47.8535 777.752 48.2695 777.752C48.7602 777.752 49.1868 777.629 49.5495 777.384C49.9122 777.139 50.1468 776.792 50.2535 776.344H52.0295C51.8482 777.197 51.4215 777.885 50.7495 778.408C50.0775 778.931 49.2508 779.192 48.2695 779.192ZM53.8689 779V767.48H55.5649V774.344L58.6049 771.064H60.6369L57.2609 774.664L61.1329 779H58.9889L55.5649 774.936V779H53.8689Z" fill="#008DFF"/>
<g filter="url(#filter1_d)">
<rect width="375" height="108" fill="#F2F3F5"/>
</g>
<rect x="132" y="70" width="110" height="3" fill="#D0D0D0"/>
<path fill-rule="evenodd" clip-rule="evenodd" d="M352 70H242V73H352C353.105 73 354 72.3284 354 71.5C354 70.6716 353.105 70 352 70Z" fill="#D0D0D0"/>
<path fill-rule="evenodd" clip-rule="evenodd" d="M22 73L132 73L132 70L22 70C20.8954 70 20 70.6716 20 71.5C20 72.3284 20.8954 73 22 73Z" fill="#008DFF"/>
<path d="M43.5028 90V80.2H45.2948V88.6H49.6348V90H43.5028ZM54.1893 90.168C53.5173 90.168 52.9106 90.014 52.3693 89.706C51.8373 89.398 51.4126 88.9733 51.0953 88.432C50.7873 87.8813 50.6333 87.2467 50.6333 86.528C50.6333 85.8093 50.7919 85.1793 51.1093 84.638C51.4266 84.0873 51.8513 83.658 52.3833 83.35C52.9246 83.042 53.5313 82.888 54.2033 82.888C54.8659 82.888 55.4633 83.042 55.9953 83.35C56.5366 83.658 56.9613 84.0873 57.2693 84.638C57.5866 85.1793 57.7453 85.8093 57.7453 86.528C57.7453 87.2467 57.5866 87.8813 57.2693 88.432C56.9613 88.9733 56.5366 89.398 55.9953 89.706C55.4539 90.014 54.8519 90.168 54.1893 90.168ZM54.1893 88.614C54.6559 88.614 55.0619 88.4413 55.4073 88.096C55.7526 87.7413 55.9253 87.2187 55.9253 86.528C55.9253 85.8373 55.7526 85.3193 55.4073 84.974C55.0619 84.6193 54.6606 84.442 54.2033 84.442C53.7273 84.442 53.3166 84.6193 52.9713 84.974C52.6353 85.3193 52.4673 85.8373 52.4673 86.528C52.4673 87.2187 52.6353 87.7413 52.9713 88.096C53.3166 88.4413 53.7226 88.614 54.1893 88.614ZM62.7495 90.168C62.0402 90.168 61.4148 90.014 60.8735 89.706C60.3322 89.398 59.9028 88.9687 59.5855 88.418C59.2775 87.8673 59.1235 87.2373 59.1235 86.528C59.1235 85.8187 59.2775 85.1887 59.5855 84.638C59.9028 84.0873 60.3322 83.658 60.8735 83.35C61.4148 83.042 62.0402 82.888 62.7495 82.888C63.6362 82.888 64.3828 83.1213 64.9895 83.588C65.5962 84.0453 65.9835 84.68 66.1515 85.492H64.2615C64.1682 85.156 63.9815 84.8947 63.7015 84.708C63.4308 84.512 63.1088 84.414 62.7355 84.414C62.2408 84.414 61.8208 84.6007 61.4755 84.974C61.1302 85.3473 60.9575 85.8653 60.9575 86.528C60.9575 87.1907 61.1302 87.7087 61.4755 88.082C61.8208 88.4553 62.2408 88.642 62.7355 88.642C63.1088 88.642 63.4308 88.5487 63.7015 88.362C63.9815 88.1753 64.1682 87.9093 64.2615 87.564H66.1515C65.9835 88.348 65.5962 88.978 64.9895 89.454C64.3828 89.93 63.6362 90.168 62.7495 90.168ZM70.136 90.168C69.5387 90.168 69.0487 90.0747 68.666 89.888C68.2834 89.692 67.9987 89.4353 67.812 89.118C67.6254 88.8007 67.532 88.4507 67.532 88.068C67.532 87.424 67.784 86.9013 68.288 86.5C68.792 86.0987 69.548 85.898 70.556 85.898H72.32V85.73C72.32 85.254 72.1847 84.904 71.914 84.68C71.6434 84.456 71.3074 84.344 70.906 84.344C70.542 84.344 70.2247 84.4327 69.954 84.61C69.6834 84.778 69.5154 85.03 69.45 85.366H67.7C67.7467 84.862 67.9147 84.4233 68.204 84.05C68.5027 83.6767 68.8854 83.392 69.352 83.196C69.8187 82.9907 70.3414 82.888 70.92 82.888C71.9094 82.888 72.6887 83.1353 73.258 83.63C73.8274 84.1247 74.112 84.8247 74.112 85.73V90H72.586L72.418 88.88C72.2127 89.2533 71.9234 89.5613 71.55 89.804C71.186 90.0467 70.7147 90.168 70.136 90.168ZM70.542 88.768C71.0554 88.768 71.452 88.6 71.732 88.264C72.0214 87.928 72.2034 87.5127 72.278 87.018H70.752C70.276 87.018 69.9354 87.1067 69.73 87.284C69.5247 87.452 69.422 87.662 69.422 87.914C69.422 88.1847 69.5247 88.3947 69.73 88.544C69.9354 88.6933 70.206 88.768 70.542 88.768ZM78.8204 90C78.0924 90 77.5091 89.8227 77.0704 89.468C76.6317 89.1133 76.4124 88.4833 76.4124 87.578V84.554H75.2224V83.056H76.4124L76.6224 81.194H78.2044V83.056H80.0804V84.554H78.2044V87.592C78.2044 87.928 78.2744 88.1613 78.4144 88.292C78.5637 88.4133 78.8157 88.474 79.1704 88.474H80.0384V90H78.8204ZM82.585 81.978C82.2583 81.978 81.9877 81.88 81.773 81.684C81.5677 81.488 81.465 81.2407 81.465 80.942C81.465 80.6433 81.5677 80.4007 81.773 80.214C81.9877 80.018 82.2583 79.92 82.585 79.92C82.9117 79.92 83.1777 80.018 83.383 80.214C83.5977 80.4007 83.705 80.6433 83.705 80.942C83.705 81.2407 83.5977 81.488 83.383 81.684C83.1777 81.88 82.9117 81.978 82.585 81.978ZM81.689 90V83.056H83.481V90H81.689ZM88.6834 90.168C88.0114 90.168 87.4047 90.014 86.8634 89.706C86.3314 89.398 85.9067 88.9733 85.5894 88.432C85.2814 87.8813 85.1274 87.2467 85.1274 86.528C85.1274 85.8093 85.2861 85.1793 85.6034 84.638C85.9207 84.0873 86.3454 83.658 86.8774 83.35C87.4187 83.042 88.0254 82.888 88.6974 82.888C89.3601 82.888 89.9574 83.042 90.4894 83.35C91.0307 83.658 91.4554 84.0873 91.7634 84.638C92.0807 85.1793 92.2394 85.8093 92.2394 86.528C92.2394 87.2467 92.0807 87.8813 91.7634 88.432C91.4554 88.9733 91.0307 89.398 90.4894 89.706C89.9481 90.014 89.3461 90.168 88.6834 90.168ZM88.6834 88.614C89.1501 88.614 89.5561 88.4413 89.9014 88.096C90.2467 87.7413 90.4194 87.2187 90.4194 86.528C90.4194 85.8373 90.2467 85.3193 89.9014 84.974C89.5561 84.6193 89.1547 84.442 88.6974 84.442C88.2214 84.442 87.8107 84.6193 87.4654 84.974C87.1294 85.3193 86.9614 85.8373 86.9614 86.528C86.9614 87.2187 87.1294 87.7413 87.4654 88.096C87.8107 88.4413 88.2167 88.614 88.6834 88.614ZM93.8416 90V83.056H95.4236L95.5636 84.232C95.7783 83.8213 96.0863 83.4947 96.4876 83.252C96.8983 83.0093 97.379 82.888 97.9296 82.888C98.7883 82.888 99.4556 83.1587 99.9316 83.7C100.408 84.2413 100.646 85.0347 100.646 86.08V90H98.8536V86.248C98.8536 85.6507 98.7323 85.1933 98.4896 84.876C98.247 84.5587 97.869 84.4 97.3556 84.4C96.8516 84.4 96.4363 84.5773 96.1096 84.932C95.7923 85.2867 95.6336 85.7813 95.6336 86.416V90H93.8416Z" fill="#04203F"/>
<path d="M158.784 90V80.2H160.268V90H158.784ZM162.201 90V83.056H163.517L163.629 84.274C163.843 83.8447 164.156 83.5087 164.567 83.266C164.987 83.014 165.467 82.888 166.009 82.888C166.849 82.888 167.507 83.1493 167.983 83.672C168.468 84.1947 168.711 84.974 168.711 86.01V90H167.241V86.164C167.241 84.82 166.69 84.148 165.589 84.148C165.038 84.148 164.581 84.344 164.217 84.736C163.862 85.128 163.685 85.688 163.685 86.416V90H162.201ZM173.371 90C172.689 90 172.148 89.8367 171.747 89.51C171.345 89.174 171.145 88.5813 171.145 87.732V84.302H169.955V83.056H171.145L171.327 81.292H172.629V83.056H174.589V84.302H172.629V87.732C172.629 88.1147 172.708 88.3807 172.867 88.53C173.035 88.67 173.319 88.74 173.721 88.74H174.519V90H173.371ZM179.189 90.168C178.508 90.168 177.901 90.0187 177.369 89.72C176.846 89.412 176.436 88.9873 176.137 88.446C175.838 87.9047 175.689 87.2747 175.689 86.556C175.689 85.828 175.834 85.1887 176.123 84.638C176.422 84.0873 176.832 83.658 177.355 83.35C177.887 83.042 178.503 82.888 179.203 82.888C179.884 82.888 180.477 83.042 180.981 83.35C181.485 83.6487 181.877 84.05 182.157 84.554C182.437 85.058 182.577 85.6133 182.577 86.22C182.577 86.3133 182.572 86.416 182.563 86.528C182.563 86.6307 182.558 86.7473 182.549 86.878H177.145C177.192 87.55 177.411 88.0633 177.803 88.418C178.204 88.7633 178.666 88.936 179.189 88.936C179.609 88.936 179.959 88.8427 180.239 88.656C180.528 88.46 180.743 88.1987 180.883 87.872H182.367C182.18 88.5253 181.807 89.0713 181.247 89.51C180.696 89.9487 180.01 90.168 179.189 90.168ZM179.189 84.106C178.694 84.106 178.256 84.2553 177.873 84.554C177.49 84.8433 177.257 85.282 177.173 85.87H181.093C181.065 85.3287 180.874 84.8993 180.519 84.582C180.164 84.2647 179.721 84.106 179.189 84.106ZM184.117 90V83.056H185.447L185.573 84.372C185.815 83.9147 186.151 83.5553 186.581 83.294C187.019 83.0233 187.547 82.888 188.163 82.888V84.442H187.757C187.346 84.442 186.977 84.512 186.651 84.652C186.333 84.7827 186.077 85.0113 185.881 85.338C185.694 85.6553 185.601 86.0987 185.601 86.668V90H184.117ZM192.492 90.168C191.81 90.168 191.204 90.0187 190.672 89.72C190.149 89.412 189.738 88.9873 189.44 88.446C189.141 87.9047 188.992 87.2747 188.992 86.556C188.992 85.828 189.136 85.1887 189.426 84.638C189.724 84.0873 190.135 83.658 190.658 83.35C191.19 83.042 191.806 82.888 192.506 82.888C193.187 82.888 193.78 83.042 194.284 83.35C194.788 83.6487 195.18 84.05 195.46 84.554C195.74 85.058 195.88 85.6133 195.88 86.22C195.88 86.3133 195.875 86.416 195.866 86.528C195.866 86.6307 195.861 86.7473 195.852 86.878H190.448C190.494 87.55 190.714 88.0633 191.106 88.418C191.507 88.7633 191.969 88.936 192.492 88.936C192.912 88.936 193.262 88.8427 193.542 88.656C193.831 88.46 194.046 88.1987 194.186 87.872H195.67C195.483 88.5253 195.11 89.0713 194.55 89.51C193.999 89.9487 193.313 90.168 192.492 90.168ZM192.492 84.106C191.997 84.106 191.558 84.2553 191.176 84.554C190.793 84.8433 190.56 85.282 190.476 85.87H194.396C194.368 85.3287 194.176 84.8993 193.822 84.582C193.467 84.2647 193.024 84.106 192.492 84.106ZM200.191 90.168C199.314 90.168 198.591 89.9533 198.021 89.524C197.452 89.0947 197.125 88.5253 197.041 87.816H198.539C198.614 88.1333 198.791 88.4087 199.071 88.642C199.351 88.866 199.72 88.978 200.177 88.978C200.625 88.978 200.952 88.8847 201.157 88.698C201.363 88.5113 201.465 88.2967 201.465 88.054C201.465 87.6993 201.321 87.4613 201.031 87.34C200.751 87.2093 200.359 87.0927 199.855 86.99C199.463 86.906 199.071 86.794 198.679 86.654C198.297 86.514 197.975 86.318 197.713 86.066C197.461 85.8047 197.335 85.4547 197.335 85.016C197.335 84.4093 197.569 83.9053 198.035 83.504C198.502 83.0933 199.155 82.888 199.995 82.888C200.77 82.888 201.395 83.0747 201.871 83.448C202.357 83.8213 202.641 84.3487 202.725 85.03H201.297C201.251 84.7313 201.111 84.498 200.877 84.33C200.653 84.162 200.35 84.078 199.967 84.078C199.594 84.078 199.305 84.1573 199.099 84.316C198.894 84.4653 198.791 84.6613 198.791 84.904C198.791 85.1467 198.931 85.338 199.211 85.478C199.501 85.618 199.879 85.744 200.345 85.856C200.812 85.9587 201.241 86.08 201.633 86.22C202.035 86.3507 202.357 86.5467 202.599 86.808C202.842 87.0693 202.963 87.452 202.963 87.956C202.973 88.5907 202.725 89.118 202.221 89.538C201.727 89.958 201.05 90.168 200.191 90.168ZM207.236 90C206.554 90 206.013 89.8367 205.612 89.51C205.21 89.174 205.01 88.5813 205.01 87.732V84.302H203.82V83.056H205.01L205.192 81.292H206.494V83.056H208.454V84.302H206.494V87.732C206.494 88.1147 206.573 88.3807 206.732 88.53C206.9 88.67 207.184 88.74 207.586 88.74H208.384V90H207.236ZM212.756 90.168C211.879 90.168 211.155 89.9533 210.586 89.524C210.017 89.0947 209.69 88.5253 209.606 87.816H211.104C211.179 88.1333 211.356 88.4087 211.636 88.642C211.916 88.866 212.285 88.978 212.742 88.978C213.19 88.978 213.517 88.8847 213.722 88.698C213.927 88.5113 214.03 88.2967 214.03 88.054C214.03 87.6993 213.885 87.4613 213.596 87.34C213.316 87.2093 212.924 87.0927 212.42 86.99C212.028 86.906 211.636 86.794 211.244 86.654C210.861 86.514 210.539 86.318 210.278 86.066C210.026 85.8047 209.9 85.4547 209.9 85.016C209.9 84.4093 210.133 83.9053 210.6 83.504C211.067 83.0933 211.72 82.888 212.56 82.888C213.335 82.888 213.96 83.0747 214.436 83.448C214.921 83.8213 215.206 84.3487 215.29 85.03H213.862C213.815 84.7313 213.675 84.498 213.442 84.33C213.218 84.162 212.915 84.078 212.532 84.078C212.159 84.078 211.869 84.1573 211.664 84.316C211.459 84.4653 211.356 84.6613 211.356 84.904C211.356 85.1467 211.496 85.338 211.776 85.478C212.065 85.618 212.443 85.744 212.91 85.856C213.377 85.9587 213.806 86.08 214.198 86.22C214.599 86.3507 214.921 86.5467 215.164 86.808C215.407 87.0693 215.528 87.452 215.528 87.956C215.537 88.5907 215.29 89.118 214.786 89.538C214.291 89.958 213.615 90.168 212.756 90.168Z" fill="#888888"/>
<path d="M276.048 90.168C275.33 90.168 274.7 90.042 274.158 89.79C273.617 89.538 273.192 89.1787 272.884 88.712C272.586 88.2453 272.432 87.69 272.422 87.046H273.99C274 87.5687 274.182 88.012 274.536 88.376C274.891 88.74 275.39 88.922 276.034 88.922C276.604 88.922 277.047 88.7867 277.364 88.516C277.691 88.236 277.854 87.8813 277.854 87.452C277.854 87.1067 277.775 86.8267 277.616 86.612C277.467 86.3973 277.257 86.22 276.986 86.08C276.725 85.94 276.422 85.814 276.076 85.702C275.731 85.59 275.367 85.4687 274.984 85.338C274.228 85.086 273.659 84.7593 273.276 84.358C272.903 83.9567 272.716 83.4293 272.716 82.776C272.707 82.2253 272.833 81.7447 273.094 81.334C273.365 80.9233 273.738 80.606 274.214 80.382C274.7 80.1487 275.264 80.032 275.908 80.032C276.543 80.032 277.098 80.1487 277.574 80.382C278.06 80.6153 278.438 80.942 278.708 81.362C278.979 81.7727 279.119 82.2533 279.128 82.804H277.56C277.56 82.552 277.495 82.314 277.364 82.09C277.234 81.8567 277.042 81.6653 276.79 81.516C276.538 81.3667 276.23 81.292 275.866 81.292C275.4 81.2827 275.012 81.3993 274.704 81.642C274.406 81.8847 274.256 82.2207 274.256 82.65C274.256 83.0327 274.368 83.3267 274.592 83.532C274.816 83.7373 275.124 83.91 275.516 84.05C275.908 84.1807 276.356 84.3347 276.86 84.512C277.346 84.6707 277.78 84.862 278.162 85.086C278.545 85.31 278.848 85.604 279.072 85.968C279.306 86.332 279.422 86.794 279.422 87.354C279.422 87.8487 279.296 88.3107 279.044 88.74C278.792 89.16 278.414 89.5053 277.91 89.776C277.406 90.0373 276.786 90.168 276.048 90.168ZM284.237 90.168C283.555 90.168 282.949 90.0187 282.417 89.72C281.894 89.412 281.483 88.9873 281.185 88.446C280.886 87.9047 280.737 87.2747 280.737 86.556C280.737 85.828 280.881 85.1887 281.171 84.638C281.469 84.0873 281.88 83.658 282.403 83.35C282.935 83.042 283.551 82.888 284.251 82.888C284.932 82.888 285.525 83.042 286.029 83.35C286.533 83.6487 286.925 84.05 287.205 84.554C287.485 85.058 287.625 85.6133 287.625 86.22C287.625 86.3133 287.62 86.416 287.611 86.528C287.611 86.6307 287.606 86.7473 287.597 86.878H282.193C282.239 87.55 282.459 88.0633 282.851 88.418C283.252 88.7633 283.714 88.936 284.237 88.936C284.657 88.936 285.007 88.8427 285.287 88.656C285.576 88.46 285.791 88.1987 285.931 87.872H287.415C287.228 88.5253 286.855 89.0713 286.295 89.51C285.744 89.9487 285.058 90.168 284.237 90.168ZM284.237 84.106C283.742 84.106 283.303 84.2553 282.921 84.554C282.538 84.8433 282.305 85.282 282.221 85.87H286.141C286.113 85.3287 285.921 84.8993 285.567 84.582C285.212 84.2647 284.769 84.106 284.237 84.106ZM291.899 90C291.217 90 290.676 89.8367 290.275 89.51C289.873 89.174 289.673 88.5813 289.673 87.732V84.302H288.483V83.056H289.673L289.855 81.292H291.157V83.056H293.117V84.302H291.157V87.732C291.157 88.1147 291.236 88.3807 291.395 88.53C291.563 88.67 291.847 88.74 292.249 88.74H293.047V90H291.899ZM297.559 90C296.878 90 296.336 89.8367 295.935 89.51C295.534 89.174 295.333 88.5813 295.333 87.732V84.302H294.143V83.056H295.333L295.515 81.292H296.817V83.056H298.777V84.302H296.817V87.732C296.817 88.1147 296.896 88.3807 297.055 88.53C297.223 88.67 297.508 88.74 297.909 88.74H298.707V90H297.559ZM301.147 81.74C300.867 81.74 300.634 81.656 300.447 81.488C300.27 81.3107 300.181 81.0913 300.181 80.83C300.181 80.5687 300.27 80.354 300.447 80.186C300.634 80.0087 300.867 79.92 301.147 79.92C301.427 79.92 301.656 80.0087 301.833 80.186C302.02 80.354 302.113 80.5687 302.113 80.83C302.113 81.0913 302.02 81.3107 301.833 81.488C301.656 81.656 301.427 81.74 301.147 81.74ZM300.405 90V83.056H301.889V90H300.405ZM303.848 90V83.056H305.164L305.276 84.274C305.491 83.8447 305.803 83.5087 306.214 83.266C306.634 83.014 307.115 82.888 307.656 82.888C308.496 82.888 309.154 83.1493 309.63 83.672C310.115 84.1947 310.358 84.974 310.358 86.01V90H308.888V86.164C308.888 84.82 308.337 84.148 307.236 84.148C306.685 84.148 306.228 84.344 305.864 84.736C305.509 85.128 305.332 85.688 305.332 86.416V90H303.848ZM314.948 87.872C314.584 87.872 314.248 87.83 313.94 87.746L313.338 88.334C313.441 88.3993 313.567 88.4553 313.716 88.502C313.865 88.5487 314.075 88.5907 314.346 88.628C314.617 88.6653 314.985 88.7027 315.452 88.74C316.376 88.824 317.043 89.048 317.454 89.412C317.865 89.7667 318.07 90.2427 318.07 90.84C318.07 91.2507 317.958 91.638 317.734 92.002C317.519 92.3753 317.179 92.674 316.712 92.898C316.255 93.1313 315.667 93.248 314.948 93.248C313.977 93.248 313.189 93.0613 312.582 92.688C311.985 92.324 311.686 91.7687 311.686 91.022C311.686 90.7327 311.761 90.4433 311.91 90.154C312.069 89.874 312.316 89.608 312.652 89.356C312.456 89.272 312.283 89.1833 312.134 89.09C311.994 88.9873 311.868 88.8847 311.756 88.782V88.446L312.96 87.214C312.419 86.7473 312.148 86.136 312.148 85.38C312.148 84.9227 312.255 84.5073 312.47 84.134C312.694 83.7513 313.016 83.448 313.436 83.224C313.856 83 314.36 82.888 314.948 82.888C315.34 82.888 315.704 82.944 316.04 83.056H318.63V84.036L317.398 84.106C317.622 84.4887 317.734 84.9133 317.734 85.38C317.734 85.8467 317.622 86.2667 317.398 86.64C317.183 87.0133 316.866 87.312 316.446 87.536C316.035 87.76 315.536 87.872 314.948 87.872ZM314.948 86.71C315.377 86.71 315.723 86.598 315.984 86.374C316.255 86.1407 316.39 85.814 316.39 85.394C316.39 84.9647 316.255 84.638 315.984 84.414C315.723 84.19 315.377 84.078 314.948 84.078C314.509 84.078 314.155 84.19 313.884 84.414C313.623 84.638 313.492 84.9647 313.492 85.394C313.492 85.814 313.623 86.1407 313.884 86.374C314.155 86.598 314.509 86.71 314.948 86.71ZM313.086 90.882C313.086 91.2833 313.263 91.582 313.618 91.778C313.973 91.9833 314.416 92.086 314.948 92.086C315.461 92.086 315.877 91.974 316.194 91.75C316.511 91.5353 316.67 91.246 316.67 90.882C316.67 90.6113 316.563 90.378 316.348 90.182C316.133 89.9953 315.727 89.8787 315.13 89.832C314.682 89.804 314.285 89.762 313.94 89.706C313.613 89.8833 313.389 90.0747 313.268 90.28C313.147 90.4853 313.086 90.686 313.086 90.882ZM322.726 90.168C321.848 90.168 321.125 89.9533 320.556 89.524C319.986 89.0947 319.66 88.5253 319.576 87.816H321.074C321.148 88.1333 321.326 88.4087 321.606 88.642C321.886 88.866 322.254 88.978 322.712 88.978C323.16 88.978 323.486 88.8847 323.692 88.698C323.897 88.5113 324 88.2967 324 88.054C324 87.6993 323.855 87.4613 323.566 87.34C323.286 87.2093 322.894 87.0927 322.39 86.99C321.998 86.906 321.606 86.794 321.214 86.654C320.831 86.514 320.509 86.318 320.248 86.066C319.996 85.8047 319.87 85.4547 319.87 85.016C319.87 84.4093 320.103 83.9053 320.57 83.504C321.036 83.0933 321.69 82.888 322.53 82.888C323.304 82.888 323.93 83.0747 324.406 83.448C324.891 83.8213 325.176 84.3487 325.26 85.03H323.832C323.785 84.7313 323.645 84.498 323.412 84.33C323.188 84.162 322.884 84.078 322.502 84.078C322.128 84.078 321.839 84.1573 321.634 84.316C321.428 84.4653 321.326 84.6613 321.326 84.904C321.326 85.1467 321.466 85.338 321.746 85.478C322.035 85.618 322.413 85.744 322.88 85.856C323.346 85.9587 323.776 86.08 324.168 86.22C324.569 86.3507 324.891 86.5467 325.134 86.808C325.376 87.0693 325.498 87.452 325.498 87.956C325.507 88.5907 325.26 89.118 324.756 89.538C324.261 89.958 323.584 90.168 322.726 90.168Z" fill="#888888"/>
<path d="M191.25 41.5C189.22 41.5 187.271 42.445 186 43.9383C184.728 42.445 182.78 41.5 180.75 41.5C177.156 41.5 174.333 44.3233 174.333 47.9167C174.333 52.3267 178.3 55.92 184.308 61.38L186 62.9083L187.691 61.3683C193.7 55.92 197.666 52.3267 197.666 47.9167C197.666 44.3233 194.843 41.5 191.25 41.5ZM186.116 59.6417L186 59.7583L185.883 59.6417C180.33 54.6133 176.666 51.2883 176.666 47.9167C176.666 45.5833 178.416 43.8333 180.75 43.8333C182.546 43.8333 184.296 44.9883 184.915 46.5867H187.096C187.703 44.9883 189.453 43.8333 191.25 43.8333C193.583 43.8333 195.333 45.5833 195.333 47.9167C195.333 51.2883 191.67 54.6133 186.116 59.6417Z" fill="#888888"/>
<path d="M72.0003 51.9999C70.717 51.9999 69.667 50.9499 69.667 49.6666C69.667 48.3833 70.717 47.3333 72.0003 47.3333C73.2837 47.3333 74.3337 48.3833 74.3337 49.6666C74.3337 50.9499 73.2837 51.9999 72.0003 51.9999ZM79.0003 49.8999C79.0003 45.6649 75.9087 42.6666 72.0003 42.6666C68.092 42.6666 65.0003 45.6649 65.0003 49.8999C65.0003 52.6299 67.2753 56.2466 72.0003 60.5633C76.7253 56.2466 79.0003 52.6299 79.0003 49.8999ZM72.0003 40.3333C76.9003 40.3333 81.3337 44.0899 81.3337 49.8999C81.3337 53.7733 78.2187 58.3583 72.0003 63.6666C65.782 58.3583 62.667 53.7733 62.667 49.8999C62.667 44.0899 67.1003 40.3333 72.0003 40.3333Z" fill="#0990AE"/>
<path d="M306.819 53.1433C306.866 52.7699 306.901 52.3966 306.901 51.9999C306.901 51.6033 306.866 51.2299 306.819 50.8566L309.281 48.9316C309.502 48.7566 309.561 48.4416 309.421 48.1849L307.087 44.1483C306.982 43.9616 306.784 43.8566 306.574 43.8566C306.504 43.8566 306.434 43.8683 306.376 43.8916L303.471 45.0583C302.864 44.5916 302.211 44.2066 301.499 43.9149L301.056 40.8233C301.021 40.5433 300.776 40.3333 300.484 40.3333H295.817C295.526 40.3333 295.281 40.5433 295.246 40.8233L294.802 43.9149C294.091 44.2066 293.437 44.6033 292.831 45.0583L289.926 43.8916C289.856 43.8683 289.786 43.8566 289.716 43.8566C289.517 43.8566 289.319 43.9616 289.214 44.1483L286.881 48.1849C286.729 48.4416 286.799 48.7566 287.021 48.9316L289.482 50.8566C289.436 51.2299 289.401 51.6149 289.401 51.9999C289.401 52.3849 289.436 52.7699 289.482 53.1433L287.021 55.0683C286.799 55.2433 286.741 55.5583 286.881 55.8149L289.214 59.8516C289.319 60.0383 289.517 60.1433 289.727 60.1433C289.797 60.1433 289.867 60.1316 289.926 60.1083L292.831 58.9416C293.437 59.4083 294.091 59.7933 294.802 60.0849L295.246 63.1766C295.281 63.4566 295.526 63.6666 295.817 63.6666H300.484C300.776 63.6666 301.021 63.4566 301.056 63.1766L301.499 60.0849C302.211 59.7933 302.864 59.3966 303.471 58.9416L306.376 60.1083C306.446 60.1316 306.516 60.1433 306.586 60.1433C306.784 60.1433 306.982 60.0383 307.087 59.8516L309.421 55.8149C309.561 55.5583 309.502 55.2433 309.281 55.0683L306.819 53.1433V53.1433ZM304.509 51.1483C304.556 51.5099 304.567 51.7549 304.567 51.9999C304.567 52.2449 304.544 52.5016 304.509 52.8516L304.346 54.1699L305.384 54.9866L306.644 55.9666L305.827 57.3783L304.346 56.7833L303.132 56.2933L302.082 57.0866C301.581 57.4599 301.102 57.7399 300.624 57.9383L299.387 58.4399L299.201 59.7583L298.967 61.3333H297.334L297.112 59.7583L296.926 58.4399L295.689 57.9383C295.187 57.7283 294.721 57.4599 294.254 57.1099L293.192 56.2933L291.956 56.7949L290.474 57.3899L289.657 55.9783L290.917 54.9983L291.956 54.1816L291.792 52.8633C291.757 52.5016 291.734 52.2333 291.734 51.9999C291.734 51.7666 291.757 51.4983 291.792 51.1483L291.956 49.8299L290.917 49.0133L289.657 48.0333L290.474 46.6216L291.956 47.2166L293.169 47.7066L294.219 46.9133C294.721 46.5399 295.199 46.2599 295.677 46.0616L296.914 45.5599L297.101 44.2416L297.334 42.6666H298.956L299.177 44.2416L299.364 45.5599L300.601 46.0616C301.102 46.2716 301.569 46.5399 302.036 46.8899L303.097 47.7066L304.334 47.2049L305.816 46.6099L306.632 48.0216L305.384 49.0133L304.346 49.8299L304.509 51.1483ZM298.151 47.3333C295.572 47.3333 293.484 49.4216 293.484 51.9999C293.484 54.5783 295.572 56.6666 298.151 56.6666C300.729 56.6666 302.817 54.5783 302.817 51.9999C302.817 49.4216 300.729 47.3333 298.151 47.3333ZM298.151 54.3333C296.867 54.3333 295.817 53.2833 295.817 51.9999C295.817 50.7166 296.867 49.6666 298.151 49.6666C299.434 49.6666 300.484 50.7166 300.484 51.9999C300.484 53.2833 299.434 54.3333 298.151 54.3333Z" fill="#888888"/>
</g>
<defs>
<filter id="filter0_d" x="14" y="667" width="347" height="84" filterUnits="userSpaceOnUse" color-interpolation-filters="sRGB">
<feFlood flood-opacity="0" result="BackgroundImageFix"/>
<feColorMatrix in="SourceAlpha" type="matrix" values="0 0 0 0 0 0 0 0 0 0 0 0 0 0 0 0 0 0 127 0"/>
<feOffset dy="4"/>
<feGaussianBlur stdDeviation="5"/>
<feColorMatrix type="matrix" values="0 0 0 0 0 0 0 0 0 0 0 0 0 0 0 0 0 0 0.1 0"/>
<feBlend mode="normal" in2="BackgroundImageFix" result="effect1_dropShadow"/>
<feBlend mode="normal" in="SourceGraphic" in2="effect1_dropShadow" result="shape"/>
</filter>
<filter id="filter1_d" x="-10" y="-6" width="395" height="128" filterUnits="userSpaceOnUse" color-interpolation-filters="sRGB">
<feFlood flood-opacity="0" result="BackgroundImageFix"/>
<feColorMatrix in="SourceAlpha" type="matrix" values="0 0 0 0 0 0 0 0 0 0 0 0 0 0 0 0 0 0 127 0"/>
<feOffset dy="4"/>
<feGaussianBlur stdDeviation="5"/>
<feColorMatrix type="matrix" values="0 0 0 0 0 0 0 0 0 0 0 0 0 0 0 0 0 0 0.1 0"/>
<feBlend mode="normal" in2="BackgroundImageFix" result="effect1_dropShadow"/>
<feBlend mode="normal" in="SourceGraphic" in2="effect1_dropShadow" result="shape"/>
</filter>
<clipPath id="clip0">
<rect width="375" height="812" fill="white"/>
</clipPath>
</defs>
</svg>
